<?xml version="1.0" encoding="utf-8"?><!-- Uploaded to: SVG Repo, www.svgrepo.com, Generator: SVG Repo Mixer Tools -->
<svg width="48" height="48" viewBox="0 0 48 48" fill="none" xmlns="http://www.w3.org/2000/svg">
    <!-- Órbita parcial punteada -->
    <path d="M24 4C36 4 42 12 44 22" 
          stroke="#3F34A3" 
          stroke-width="1.5" 
          stroke-linecap="round"
          stroke-dasharray="2 3"/>

     <!-- Ondas/Continentes -->
    <path d="M11 26C16 20 18 30 24 27C28 26 34 18 38 22" 
          stroke="url(#paint1_linear)" 
          stroke-width="2" 
          stroke-linecap="round"/>
          
    <path d="M13 16C14 14 18 18 24 16C30 14 34 18 36 17" 
          stroke="url(#paint1_linear)" 
          stroke-width="2" 
          stroke-linecap="round"/>
          
    <path d="M14 34C13 30 20 36 26 32C32 28 36 32 37 29" 
          stroke="url(#paint1_linear)" 
          stroke-width="2" 
          stroke-linecap="round"/>
          
    <!-- Planeta base -->
    <circle cx="24" cy="24" r="14" 
            stroke="url(#paint0_linear)" 
            stroke-width="2" 
            stroke-linecap="round"/>
    
   
    
    <!-- Objeto orbitando -->
    <circle cx="44" cy="22" r="3" fill="url(#paint2_linear)"/>
    
    <defs>
        <linearGradient id="paint0_linear" x1="10" y1="10" x2="38" y2="38" gradientUnits="userSpaceOnUse">
            <stop stop-color="#78F493"/>
            <stop offset="1" stop-color="#3F34A3"/>
        </linearGradient>
        <linearGradient id="paint1_linear" x1="10" y1="14" x2="38" y2="34" gradientUnits="userSpaceOnUse">
            <stop stop-color="#78F493"/>
            <stop offset="0.7" stop-color="#3F34A3"/>
        </linearGradient>
        <linearGradient id="paint2_linear" x1="41" y1="19" x2="47" y2="25" gradientUnits="userSpaceOnUse">
            <stop stop-color="#78F493"/>
            <stop offset="1" stop-color="#3F34A3"/>
        </linearGradient>
    </defs>
</svg>