<svg width="20" height="20" viewBox="0 0 20 20" fill="none" xmlns="http://www.w3.org/2000/svg">
<path d="M10 9.325L12.375 11.7C12.5583 11.8833 12.7875 11.975 13.0625 11.975C13.3375 11.975 13.575 11.8833 13.775 11.7C13.975 11.5 14.075 11.2625 14.075 10.9875C14.075 10.7125 13.975 10.475 13.775 10.275L10.7 7.2C10.5 7 10.2667 6.9 10 6.9C9.73333 6.9 9.5 7 9.3 7.2L6.2 10.3C6 10.5 5.90417 10.7333 5.9125 11C5.92083 11.2667 6.025 11.5 6.225 11.7C6.425 11.8833 6.65833 11.9792 6.925 11.9875C7.19167 11.9958 7.425 11.9 7.625 11.7L10 9.325ZM10 20C8.61667 20 7.31667 19.7375 6.1 19.2125C4.88333 18.6875 3.825 17.975 2.925 17.075C2.025 16.175 1.3125 15.1167 0.7875 13.9C0.2625 12.6833 0 11.3833 0 10C0 8.61667 0.2625 7.31667 0.7875 6.1C1.3125 4.88333 2.025 3.825 2.925 2.925C3.825 2.025 4.88333 1.3125 6.1 0.7875C7.31667 0.2625 8.61667 0 10 0C11.3833 0 12.6833 0.2625 13.9 0.7875C15.1167 1.3125 16.175 2.025 17.075 2.925C17.975 3.825 18.6875 4.88333 19.2125 6.1C19.7375 7.31667 20 8.61667 20 10C20 11.3833 19.7375 12.6833 19.2125 13.9C18.6875 15.1167 17.975 16.175 17.075 17.075C16.175 17.975 15.1167 18.6875 13.9 19.2125C12.6833 19.7375 11.3833 20 10 20ZM10 18C12.2333 18 14.125 17.225 15.675 15.675C17.225 14.125 18 12.2333 18 10C18 7.76667 17.225 5.875 15.675 4.325C14.125 2.775 12.2333 2 10 2C7.76667 2 5.875 2.775 4.325 4.325C2.775 5.875 2 7.76667 2 10C2 12.2333 2.775 14.125 4.325 15.675C5.875 17.225 7.76667 18 10 18Z" fill="#78F493"/>
</svg>
