<svg width="466" height="341" viewBox="0 0 466 341" fill="none" xmlns="http://www.w3.org/2000/svg">
<path d="M232.376 94.8904C232.641 95.5136 232.339 96.2312 231.715 96.4955C231.092 96.7599 230.374 96.4578 230.109 95.8346C229.845 95.2114 230.147 94.4938 230.771 94.2295C231.394 93.9651 232.112 94.2672 232.376 94.8904Z" fill="white"/>
<path d="M227.276 104.842C227.54 105.465 227.238 106.183 226.614 106.447C225.991 106.712 225.273 106.41 225.008 105.787C224.744 105.163 225.046 104.446 225.67 104.181C226.293 103.917 227.011 104.219 227.276 104.842Z" fill="white"/>
<path d="M228.598 116.248C228.863 116.871 228.56 117.589 227.937 117.853C227.313 118.118 226.595 117.816 226.331 117.192C226.066 116.569 226.369 115.852 226.992 115.587C227.616 115.323 228.334 115.625 228.598 116.248Z" fill="white"/>
<path d="M235.985 124.708C236.249 125.331 235.947 126.049 235.324 126.313C234.7 126.578 233.982 126.276 233.718 125.652C233.453 125.029 233.756 124.312 234.379 124.047C235.002 123.783 235.72 124.085 235.985 124.708Z" fill="white"/>
<path d="M246.64 127.918C246.905 128.542 246.602 129.259 245.979 129.524C245.355 129.788 244.638 129.486 244.373 128.863C244.109 128.24 244.411 127.522 245.034 127.258C245.658 126.993 246.376 127.295 246.64 127.918Z" fill="white"/>
<path d="M257.503 125.388C257.768 126.011 257.465 126.729 256.842 126.993C256.218 127.258 255.501 126.955 255.236 126.332C254.972 125.709 255.274 124.992 255.897 124.727C256.521 124.463 257.239 124.765 257.503 125.388Z" fill="white"/>
<path d="M266.949 119.44C267.214 120.063 266.912 120.78 266.288 121.045C265.665 121.309 264.947 121.007 264.682 120.384C264.418 119.761 264.72 119.043 265.343 118.779C265.967 118.514 266.685 118.816 266.949 119.44Z" fill="white"/>
<path d="M276.471 113.567C276.736 114.19 276.433 114.907 275.81 115.172C275.186 115.436 274.468 115.134 274.204 114.511C273.939 113.888 274.242 113.17 274.865 112.906C275.489 112.641 276.207 112.943 276.471 113.567Z" fill="white"/>
<path d="M285.993 107.713C286.257 108.336 285.955 109.053 285.332 109.318C284.708 109.582 283.99 109.28 283.726 108.657C283.461 108.034 283.763 107.316 284.387 107.052C285.01 106.787 285.728 107.089 285.993 107.713Z" fill="white"/>
<path d="M295.514 101.859C295.779 102.482 295.477 103.199 294.853 103.464C294.23 103.728 293.512 103.426 293.247 102.803C292.983 102.18 293.285 101.462 293.909 101.198C294.532 100.933 295.25 101.235 295.514 101.859Z" fill="white"/>
<path d="M305.131 96.5521C305.395 97.1753 305.093 97.8929 304.469 98.1573C303.846 98.4217 303.128 98.1195 302.864 97.4963C302.599 96.8732 302.901 96.1556 303.525 95.8912C304.148 95.6268 304.866 95.929 305.131 96.5521Z" fill="white"/>
<path d="M315.616 94.8148C315.88 95.438 315.578 96.1556 314.955 96.42C314.331 96.6844 313.613 96.3822 313.349 95.759C313.084 95.1359 313.387 94.4183 314.01 94.1539C314.633 93.8895 315.351 94.1917 315.616 94.8148Z" fill="white"/>
<path d="M323.267 100.82C323.532 101.443 323.229 102.161 322.606 102.425C321.983 102.689 321.265 102.387 321 101.764C320.736 101.141 321.038 100.423 321.661 100.159C322.285 99.8946 323.003 100.197 323.267 100.82Z" fill="white"/>
<path d="M327.82 110.13C328.085 110.753 327.782 111.471 327.159 111.735C326.536 111.999 325.818 111.697 325.553 111.074C325.289 110.451 325.591 109.733 326.214 109.469C326.838 109.204 327.556 109.507 327.82 110.13Z" fill="white"/>
<path d="M329.199 121.215C329.464 121.838 329.162 122.555 328.538 122.82C327.915 123.084 327.197 122.782 326.932 122.159C326.668 121.536 326.97 120.818 327.593 120.554C328.217 120.289 328.935 120.591 329.199 121.215Z" fill="white"/>
<path d="M324.514 130.789C324.779 131.412 324.476 132.13 323.853 132.394C323.229 132.658 322.511 132.356 322.247 131.733C321.982 131.11 322.285 130.392 322.908 130.128C323.532 129.864 324.25 130.166 324.514 130.789Z" fill="white"/>
<path d="M316.806 137.304C317.071 137.927 316.768 138.645 316.145 138.909C315.521 139.173 314.803 138.871 314.539 138.248C314.274 137.625 314.577 136.907 315.2 136.643C315.824 136.379 316.542 136.681 316.806 137.304Z" fill="white"/>
<path d="M306.359 140.457C306.623 141.081 306.321 141.798 305.697 142.063C305.074 142.327 304.356 142.025 304.091 141.402C303.827 140.778 304.129 140.061 304.753 139.796C305.376 139.532 306.094 139.834 306.359 140.457Z" fill="white"/>
<path d="M295.741 144.291C296.006 144.914 295.703 145.632 295.08 145.896C294.456 146.16 293.739 145.858 293.474 145.235C293.21 144.612 293.512 143.894 294.135 143.63C294.759 143.366 295.477 143.668 295.741 144.291Z" fill="white"/>
<path d="M285.558 148.899C285.823 149.522 285.52 150.239 284.897 150.504C284.274 150.768 283.556 150.466 283.291 149.843C283.027 149.22 283.329 148.502 283.952 148.238C284.576 147.973 285.294 148.275 285.558 148.899Z" fill="white"/>
<path d="M275.375 153.525C275.64 154.148 275.337 154.866 274.714 155.13C274.091 155.395 273.373 155.093 273.108 154.469C272.844 153.846 273.146 153.129 273.769 152.864C274.393 152.6 275.111 152.902 275.375 153.525Z" fill="white"/>
<path d="M266.836 161.06C267.1 161.683 266.798 162.401 266.175 162.665C265.551 162.929 264.833 162.627 264.569 162.004C264.304 161.381 264.607 160.663 265.23 160.399C265.854 160.135 266.571 160.437 266.836 161.06Z" fill="white"/>
<path d="M261.263 170.936C261.527 171.559 261.225 172.277 260.602 172.541C259.978 172.806 259.26 172.504 258.996 171.88C258.731 171.257 259.033 170.54 259.657 170.275C260.28 170.011 260.998 170.313 261.263 170.936Z" fill="white"/>
<path d="M261.508 182.172C261.773 182.795 261.471 183.513 260.847 183.777C260.224 184.042 259.506 183.74 259.241 183.116C258.977 182.493 259.279 181.776 259.902 181.511C260.526 181.247 261.244 181.549 261.508 182.172Z" fill="white"/>
<path d="M265.721 192.558C265.986 193.182 265.684 193.899 265.06 194.164C264.437 194.428 263.719 194.126 263.454 193.503C263.19 192.879 263.492 192.162 264.115 191.897C264.739 191.633 265.457 191.935 265.721 192.558Z" fill="white"/>
<path d="M273.467 200.622C273.732 201.245 273.429 201.963 272.806 202.227C272.182 202.491 271.465 202.189 271.2 201.566C270.936 200.943 271.238 200.225 271.861 199.961C272.485 199.697 273.203 199.999 273.467 200.622Z" fill="white"/>
<path d="M284.16 204.682C284.425 205.305 284.122 206.023 283.499 206.287C282.875 206.551 282.158 206.249 281.893 205.626C281.629 205.003 281.931 204.285 282.554 204.021C283.178 203.757 283.896 204.059 284.16 204.682Z" fill="white"/>
<path d="M294.834 207.987C295.099 208.61 294.797 209.327 294.173 209.592C293.55 209.856 292.832 209.554 292.567 208.931C292.303 208.308 292.605 207.59 293.228 207.326C293.852 207.061 294.57 207.363 294.834 207.987Z" fill="white"/>
<path d="M305.565 211.31C305.83 211.933 305.527 212.651 304.904 212.915C304.28 213.18 303.563 212.878 303.298 212.254C303.034 211.631 303.336 210.914 303.959 210.649C304.583 210.385 305.301 210.687 305.565 211.31Z" fill="white"/>
<path d="M316.712 212.878C316.976 213.501 316.674 214.218 316.05 214.483C315.427 214.747 314.709 214.445 314.444 213.822C314.18 213.199 314.482 212.481 315.106 212.217C315.729 211.952 316.447 212.254 316.712 212.878Z" fill="white"/>
<path d="M327.782 214.464C328.047 215.087 327.745 215.805 327.121 216.069C326.498 216.333 325.78 216.031 325.515 215.408C325.251 214.785 325.553 214.067 326.177 213.803C326.8 213.539 327.518 213.841 327.782 214.464Z" fill="white"/>
<path d="M339.061 214.69C339.326 215.314 339.023 216.031 338.4 216.296C337.776 216.56 337.059 216.258 336.794 215.635C336.53 215.011 336.832 214.294 337.455 214.03C338.079 213.765 338.797 214.067 339.061 214.69Z" fill="white"/>
<path d="M350.226 214.351C350.491 214.974 350.189 215.691 349.565 215.956C348.942 216.22 348.224 215.918 347.959 215.295C347.695 214.672 347.997 213.954 348.621 213.69C349.244 213.425 349.962 213.727 350.226 214.351Z" fill="white"/>
<path d="M361.43 212.859C361.694 213.482 361.392 214.2 360.768 214.464C360.145 214.728 359.427 214.426 359.162 213.803C358.898 213.18 359.2 212.462 359.824 212.198C360.447 211.933 361.165 212.236 361.43 212.859Z" fill="white"/>
<path d="M372.198 209.856C372.463 210.479 372.16 211.197 371.537 211.461C370.914 211.726 370.196 211.424 369.931 210.8C369.667 210.177 369.969 209.46 370.592 209.195C371.216 208.931 371.934 209.233 372.198 209.856Z" fill="white"/>
<path d="M382.967 207.005C383.231 207.628 382.929 208.345 382.306 208.61C381.682 208.874 380.964 208.572 380.7 207.949C380.435 207.326 380.738 206.608 381.361 206.344C381.984 206.079 382.702 206.381 382.967 207.005Z" fill="white"/>
<path d="M393.849 204.474C394.113 205.097 393.811 205.815 393.188 206.079C392.564 206.344 391.846 206.042 391.582 205.418C391.317 204.795 391.619 204.078 392.243 203.813C392.866 203.549 393.584 203.851 393.849 204.474Z" fill="white"/>
<path d="M404.485 202.756C404.75 203.379 404.447 204.097 403.824 204.361C403.2 204.625 402.483 204.323 402.218 203.7C401.954 203.077 402.256 202.359 402.879 202.095C403.503 201.83 404.221 202.133 404.485 202.756Z" fill="white"/>
<path d="M415.556 204.304C415.82 204.927 415.518 205.645 414.895 205.909C414.271 206.174 413.553 205.872 413.289 205.248C413.024 204.625 413.327 203.908 413.95 203.643C414.574 203.379 415.291 203.681 415.556 204.304Z" fill="white"/>
<path d="M426.457 205.872C426.721 206.495 426.419 207.212 425.796 207.477C425.172 207.741 424.454 207.439 424.19 206.816C423.925 206.193 424.228 205.475 424.851 205.211C425.474 204.946 426.192 205.248 426.457 205.872Z" fill="white"/>
<path d="M435.827 211.688C436.092 212.311 435.79 213.029 435.166 213.293C434.543 213.557 433.825 213.255 433.56 212.632C433.296 212.009 433.598 211.291 434.222 211.027C434.845 210.763 435.563 211.065 435.827 211.688Z" fill="white"/>
<path d="M445.33 217.58C445.595 218.203 445.292 218.92 444.669 219.185C444.046 219.449 443.328 219.147 443.063 218.524C442.799 217.901 443.101 217.183 443.724 216.919C444.348 216.654 445.066 216.957 445.33 217.58Z" fill="white"/>
<path d="M451.999 225.964C452.264 226.587 451.961 227.305 451.338 227.569C450.714 227.834 449.997 227.532 449.732 226.908C449.468 226.285 449.77 225.568 450.393 225.303C451.017 225.039 451.735 225.341 451.999 225.964Z" fill="white"/>
<path d="M458.328 235.161C458.593 235.784 458.29 236.502 457.667 236.766C457.043 237.03 456.326 236.728 456.061 236.105C455.797 235.482 456.099 234.764 456.722 234.5C457.346 234.235 458.064 234.538 458.328 235.161Z" fill="white"/>
<path d="M462.919 245.037C463.183 245.66 462.881 246.378 462.258 246.642C461.634 246.907 460.916 246.604 460.652 245.981C460.387 245.358 460.69 244.64 461.313 244.376C461.937 244.112 462.654 244.414 462.919 245.037Z" fill="white"/>
<path d="M465.432 255.518C465.696 256.141 465.394 256.858 464.77 257.123C464.147 257.387 463.429 257.085 463.165 256.462C462.9 255.839 463.202 255.121 463.826 254.857C464.449 254.592 465.167 254.894 465.432 255.518Z" fill="white"/>
<path d="M465.564 266.697C465.828 267.32 465.526 268.038 464.903 268.302C464.279 268.567 463.561 268.264 463.297 267.641C463.032 267.018 463.335 266.3 463.958 266.036C464.581 265.772 465.299 266.074 465.564 266.697Z" fill="white"/>
<path d="M464.997 277.291C465.262 277.914 464.959 278.632 464.336 278.896C463.712 279.16 462.994 278.858 462.73 278.235C462.465 277.612 462.768 276.894 463.391 276.63C464.015 276.366 464.733 276.668 464.997 277.291Z" fill="white"/>
<path d="M459.65 287.111C459.915 287.734 459.613 288.451 458.989 288.716C458.366 288.98 457.648 288.678 457.383 288.055C457.119 287.432 457.421 286.714 458.045 286.45C458.668 286.185 459.386 286.487 459.65 287.111Z" fill="white"/>
<path d="M454.304 296.911C454.568 297.535 454.266 298.252 453.643 298.517C453.019 298.781 452.301 298.479 452.037 297.856C451.772 297.232 452.075 296.515 452.698 296.25C453.322 295.986 454.039 296.288 454.304 296.911Z" fill="white"/>
<path d="M446.369 304.257C446.634 304.88 446.331 305.598 445.708 305.862C445.085 306.127 444.367 305.825 444.102 305.201C443.838 304.578 444.14 303.861 444.763 303.596C445.387 303.332 446.105 303.634 446.369 304.257Z" fill="white"/>
<path d="M437.868 311.528C438.132 312.151 437.83 312.868 437.207 313.133C436.583 313.397 435.865 313.095 435.601 312.472C435.336 311.849 435.639 311.131 436.262 310.867C436.885 310.602 437.603 310.904 437.868 311.528Z" fill="white"/>
<path d="M429.026 318.231C429.291 318.855 428.988 319.572 428.365 319.837C427.741 320.101 427.024 319.799 426.759 319.176C426.495 318.552 426.797 317.835 427.42 317.571C428.044 317.306 428.762 317.608 429.026 318.231Z" fill="white"/>
<path d="M419.92 324.709C420.185 325.332 419.882 326.049 419.259 326.314C418.635 326.578 417.917 326.276 417.653 325.653C417.388 325.03 417.691 324.312 418.314 324.048C418.938 323.783 419.656 324.085 419.92 324.709Z" fill="white"/>
<path d="M410.153 329.845C410.417 330.468 410.115 331.186 409.491 331.45C408.868 331.715 408.15 331.412 407.886 330.789C407.621 330.166 407.923 329.449 408.547 329.184C409.17 328.92 409.888 329.222 410.153 329.845Z" fill="white"/>
<path d="M400.102 334.755C400.367 335.378 400.064 336.096 399.441 336.36C398.817 336.624 398.099 336.322 397.835 335.699C397.57 335.076 397.873 334.358 398.496 334.094C399.12 333.83 399.838 334.132 400.102 334.755Z" fill="white"/>
<path d="M389.466 336.908C389.73 337.531 389.428 338.248 388.804 338.513C388.181 338.777 387.463 338.475 387.199 337.852C386.934 337.229 387.236 336.511 387.86 336.247C388.483 335.982 389.201 336.285 389.466 336.908Z" fill="white"/>
<path d="M378.395 338.494C378.659 339.117 378.357 339.835 377.734 340.099C377.11 340.363 376.392 340.061 376.128 339.438C375.863 338.815 376.165 338.097 376.789 337.833C377.412 337.569 378.13 337.871 378.395 338.494Z" fill="white"/>
<path d="M367.777 337.323C368.042 337.946 367.74 338.664 367.116 338.928C366.493 339.193 365.775 338.89 365.51 338.267C365.246 337.644 365.548 336.927 366.172 336.662C366.795 336.398 367.513 336.7 367.777 337.323Z" fill="white"/>
<path d="M356.933 334.623C357.198 335.246 356.895 335.963 356.272 336.228C355.649 336.492 354.931 336.19 354.666 335.567C354.402 334.944 354.704 334.226 355.327 333.962C355.951 333.697 356.669 334 356.933 334.623Z" fill="white"/>
<path d="M346.807 330.865C347.071 331.488 346.769 332.206 346.146 332.47C345.522 332.734 344.804 332.432 344.54 331.809C344.275 331.186 344.578 330.468 345.201 330.204C345.825 329.939 346.542 330.242 346.807 330.865Z" fill="white"/>
<path d="M337.361 324.879C337.625 325.502 337.323 326.219 336.7 326.484C336.076 326.748 335.358 326.446 335.094 325.823C334.829 325.2 335.132 324.482 335.755 324.218C336.378 323.953 337.096 324.255 337.361 324.879Z" fill="white"/>
<path d="M328.368 318.534C328.633 319.157 328.33 319.874 327.707 320.139C327.083 320.403 326.366 320.101 326.101 319.478C325.837 318.855 326.139 318.137 326.762 317.873C327.386 317.608 328.104 317.91 328.368 318.534Z" fill="white"/>
<path d="M320.093 311.018C320.358 311.641 320.055 312.358 319.432 312.623C318.809 312.887 318.091 312.585 317.826 311.962C317.562 311.339 317.864 310.621 318.487 310.357C319.111 310.092 319.829 310.395 320.093 311.018Z" fill="white"/>
<path d="M312.669 302.898C312.933 303.521 312.631 304.238 312.007 304.503C311.384 304.767 310.666 304.465 310.402 303.842C310.137 303.219 310.439 302.501 311.063 302.237C311.686 301.972 312.404 302.274 312.669 302.898Z" fill="white"/>
<path d="M305.867 294.041C306.132 294.664 305.83 295.382 305.206 295.646C304.583 295.911 303.865 295.608 303.6 294.985C303.336 294.362 303.638 293.644 304.262 293.38C304.885 293.116 305.603 293.418 305.867 294.041Z" fill="white"/>
<path d="M299.047 285.184C299.312 285.808 299.01 286.525 298.386 286.79C297.763 287.054 297.045 286.752 296.78 286.129C296.516 285.505 296.818 284.788 297.441 284.524C298.065 284.259 298.783 284.561 299.047 285.184Z" fill="white"/>
<path d="M293.04 275.988C293.304 276.611 293.002 277.329 292.378 277.593C291.755 277.857 291.037 277.555 290.772 276.932C290.508 276.309 290.81 275.591 291.434 275.327C292.057 275.063 292.775 275.365 293.04 275.988Z" fill="white"/>
<path d="M287.92 266.036C288.184 266.659 287.882 267.377 287.259 267.641C286.635 267.906 285.917 267.603 285.653 266.98C285.388 266.357 285.69 265.639 286.314 265.375C286.937 265.111 287.655 265.413 287.92 266.036Z" fill="white"/>
<path d="M281.742 256.575C282.006 257.198 281.704 257.916 281.081 258.18C280.457 258.445 279.739 258.143 279.475 257.519C279.21 256.896 279.513 256.179 280.136 255.914C280.76 255.65 281.477 255.952 281.742 256.575Z" fill="white"/>
<path d="M273.543 248.984C273.807 249.607 273.505 250.325 272.881 250.589C272.258 250.853 271.54 250.551 271.276 249.928C271.011 249.305 271.313 248.587 271.937 248.323C272.56 248.058 273.278 248.361 273.543 248.984Z" fill="white"/>
<path d="M263.964 243.13C264.229 243.753 263.927 244.471 263.303 244.735C262.68 244.999 261.962 244.697 261.697 244.074C261.433 243.451 261.735 242.733 262.358 242.469C262.982 242.204 263.7 242.507 263.964 243.13Z" fill="white"/>
<path d="M252.969 241.166C253.234 241.789 252.931 242.507 252.308 242.771C251.684 243.035 250.966 242.733 250.702 242.11C250.437 241.487 250.74 240.769 251.363 240.505C251.987 240.24 252.705 240.543 252.969 241.166Z" fill="white"/>
<path d="M241.955 239.183C242.219 239.806 241.917 240.524 241.294 240.788C240.67 241.053 239.952 240.75 239.688 240.127C239.423 239.504 239.726 238.786 240.349 238.522C240.972 238.258 241.69 238.56 241.955 239.183Z" fill="white"/>
<path d="M230.695 240.58C230.96 241.204 230.657 241.921 230.034 242.186C229.41 242.45 228.692 242.148 228.428 241.525C228.163 240.901 228.466 240.184 229.089 239.92C229.713 239.655 230.431 239.957 230.695 240.58Z" fill="white"/>
<path d="M219.738 242.828C220.002 243.451 219.7 244.168 219.076 244.433C218.453 244.697 217.735 244.395 217.47 243.772C217.206 243.149 217.508 242.431 218.132 242.167C218.755 241.902 219.473 242.204 219.738 242.828Z" fill="white"/>
<path d="M208.856 245.792C209.12 246.416 208.818 247.133 208.194 247.398C207.571 247.662 206.853 247.36 206.589 246.737C206.324 246.113 206.626 245.396 207.25 245.131C207.873 244.867 208.591 245.169 208.856 245.792Z" fill="white"/>
<path d="M198.484 249.947C198.748 250.57 198.446 251.288 197.822 251.552C197.199 251.816 196.481 251.514 196.217 250.891C195.952 250.268 196.254 249.55 196.878 249.286C197.501 249.022 198.219 249.324 198.484 249.947Z" fill="white"/>
<path d="M188.376 254.951C188.641 255.574 188.339 256.292 187.715 256.556C187.092 256.821 186.374 256.519 186.109 255.895C185.845 255.272 186.147 254.555 186.771 254.29C187.394 254.026 188.112 254.328 188.376 254.951Z" fill="white"/>
<path d="M178.798 260.73C179.062 261.353 178.76 262.07 178.137 262.335C177.513 262.599 176.795 262.297 176.531 261.674C176.266 261.051 176.569 260.333 177.192 260.069C177.816 259.804 178.533 260.106 178.798 260.73Z" fill="white"/>
<path d="M169.409 266.961C169.673 267.585 169.371 268.302 168.747 268.566C168.124 268.831 167.406 268.529 167.141 267.906C166.877 267.282 167.179 266.565 167.803 266.3C168.426 266.036 169.144 266.338 169.409 266.961Z" fill="white"/>
<path d="M160.888 274.194C161.153 274.817 160.85 275.535 160.227 275.799C159.603 276.063 158.886 275.761 158.621 275.138C158.357 274.515 158.659 273.797 159.282 273.533C159.906 273.269 160.624 273.571 160.888 274.194Z" fill="white"/>
<path d="M151.763 280.293C152.028 280.917 151.725 281.634 151.102 281.899C150.478 282.163 149.761 281.861 149.496 281.238C149.232 280.615 149.534 279.897 150.157 279.633C150.781 279.368 151.499 279.67 151.763 280.293Z" fill="white"/>
<path d="M141.977 285.713C142.241 286.336 141.939 287.054 141.316 287.318C140.692 287.583 139.974 287.281 139.71 286.657C139.445 286.034 139.748 285.317 140.371 285.052C140.995 284.788 141.712 285.09 141.977 285.713Z" fill="white"/>
<path d="M132.021 290.377C132.285 291.001 131.983 291.718 131.36 291.983C130.736 292.247 130.018 291.945 129.754 291.322C129.489 290.698 129.791 289.981 130.415 289.717C131.038 289.452 131.756 289.754 132.021 290.377Z" fill="white"/>
<path d="M121.441 294.003C121.706 294.626 121.403 295.344 120.78 295.608C120.156 295.873 119.438 295.571 119.174 294.947C118.909 294.324 119.212 293.607 119.835 293.342C120.459 293.078 121.177 293.38 121.441 294.003Z" fill="white"/>
<path d="M110.578 295.948C110.842 296.571 110.54 297.289 109.917 297.553C109.293 297.818 108.575 297.516 108.311 296.892C108.046 296.269 108.349 295.552 108.972 295.287C109.596 295.023 110.313 295.325 110.578 295.948Z" fill="white"/>
<path d="M99.5449 297.723C99.8094 298.347 99.5071 299.064 98.8837 299.329C98.2602 299.593 97.5423 299.291 97.2778 298.668C97.0133 298.044 97.3156 297.327 97.9391 297.062C98.5625 296.798 99.2804 297.1 99.5449 297.723Z" fill="white"/>
<path d="M88.6818 296.723C88.9463 297.346 88.644 298.063 88.0206 298.328C87.3971 298.592 86.6792 298.29 86.4147 297.667C86.1503 297.044 86.4525 296.326 87.076 296.062C87.6994 295.797 88.4173 296.099 88.6818 296.723Z" fill="white"/>
<path d="M77.592 295.344C77.8565 295.967 77.5543 296.685 76.9308 296.949C76.3074 297.214 75.5894 296.911 75.325 296.288C75.0605 295.665 75.3628 294.947 75.9862 294.683C76.6096 294.419 77.3275 294.721 77.592 295.344Z" fill="white"/>
<path d="M67.1447 292.474C67.4091 293.097 67.1069 293.814 66.4834 294.079C65.86 294.343 65.1421 294.041 64.8776 293.418C64.6131 292.795 64.9154 292.077 65.5388 291.813C66.1623 291.548 66.8802 291.85 67.1447 292.474Z" fill="white"/>
<path d="M56.9428 287.923C57.2073 288.546 56.905 289.263 56.2816 289.528C55.6581 289.792 54.9402 289.49 54.6757 288.867C54.4112 288.244 54.7135 287.526 55.337 287.262C55.9604 286.997 56.6783 287.299 56.9428 287.923Z" fill="white"/>
<path d="M47.7045 282.201C47.969 282.824 47.6667 283.541 47.0432 283.806C46.4198 284.07 45.7019 283.768 45.4374 283.145C45.1729 282.522 45.4752 281.804 46.0986 281.54C46.7221 281.275 47.44 281.578 47.7045 282.201Z" fill="white"/>
<path d="M39.0896 275.063C39.3541 275.686 39.0518 276.403 38.4284 276.668C37.8049 276.932 37.087 276.63 36.8225 276.007C36.558 275.384 36.8603 274.666 37.4838 274.402C38.1072 274.137 38.8251 274.439 39.0896 275.063Z" fill="white"/>
<path d="M32.6285 266.772C32.893 267.396 32.5907 268.113 31.9672 268.378C31.3438 268.642 30.6259 268.34 30.3614 267.717C30.0969 267.093 30.3992 266.376 31.0226 266.112C31.6461 265.847 32.364 266.149 32.6285 266.772Z" fill="white"/>
<path d="M28.1321 256.556C28.3966 257.179 28.0943 257.897 27.4708 258.161C26.8474 258.426 26.1295 258.124 25.865 257.5C25.6005 256.877 25.9028 256.16 26.5262 255.895C27.1497 255.631 27.8676 255.933 28.1321 256.556Z" fill="white"/>
<path d="M27.3764 246.302C27.6409 246.925 27.3386 247.643 26.7152 247.907C26.0917 248.172 25.3738 247.87 25.1093 247.246C24.8448 246.623 25.1471 245.906 25.7706 245.641C26.394 245.377 27.1119 245.679 27.3764 246.302Z" fill="white"/>
<path d="M32.7229 236.671C32.9874 237.295 32.6851 238.012 32.0617 238.277C31.4382 238.541 30.7203 238.239 30.4558 237.616C30.1913 236.992 30.4936 236.275 31.117 236.01C31.7405 235.746 32.4584 236.048 32.7229 236.671Z" fill="white"/>
<path d="M42.4713 233.235C42.7358 233.858 42.4335 234.575 41.8101 234.84C41.1866 235.104 40.4687 234.802 40.2042 234.179C39.9397 233.556 40.242 232.838 40.8655 232.574C41.4889 232.309 42.2068 232.611 42.4713 233.235Z" fill="white"/>
<path d="M52.2197 236.974C52.4842 237.597 52.1819 238.314 51.5585 238.579C50.935 238.843 50.2171 238.541 49.9526 237.918C49.6882 237.295 49.9904 236.577 50.6139 236.313C51.2373 236.048 51.9552 236.35 52.2197 236.974Z" fill="white"/>
<path d="M58.7942 245.434C59.0587 246.057 58.7565 246.774 58.133 247.039C57.5096 247.303 56.7917 247.001 56.5272 246.378C56.2627 245.755 56.565 245.037 57.1884 244.773C57.8118 244.508 58.5298 244.81 58.7942 245.434Z" fill="white"/>
<path d="M59.2854 256.367C59.5499 256.991 59.2477 257.708 58.6242 257.973C58.0008 258.237 57.2829 257.935 57.0184 257.312C56.7539 256.688 57.0562 255.971 57.6796 255.707C58.3031 255.442 59.021 255.744 59.2854 256.367Z" fill="white"/>
<path d="M57.1506 266.697C57.4151 267.32 57.1128 268.038 56.4894 268.302C55.8659 268.567 55.148 268.264 54.8836 267.641C54.6191 267.018 54.9213 266.3 55.5448 266.036C56.1682 265.772 56.8861 266.074 57.1506 266.697Z" fill="white"/>
<path d="M52.7676 276.649C53.0321 277.272 52.7298 277.99 52.1064 278.254C51.483 278.518 50.7651 278.216 50.5006 277.593C50.2361 276.97 50.5383 276.252 51.1618 275.988C51.7852 275.724 52.5031 276.026 52.7676 276.649Z" fill="white"/>
<path d="M45.154 284.845C45.4185 285.468 45.1163 286.185 44.4928 286.45C43.8694 286.714 43.1515 286.412 42.887 285.789C42.6225 285.166 42.9248 284.448 43.5482 284.184C44.1716 283.919 44.8896 284.221 45.154 284.845Z" fill="white"/>
<path d="M37.5593 293.04C37.8238 293.663 37.5215 294.381 36.8981 294.645C36.2746 294.91 35.5567 294.608 35.2922 293.984C35.0278 293.361 35.33 292.644 35.9535 292.379C36.5769 292.115 37.2948 292.417 37.5593 293.04Z" fill="white"/>
<path d="M30.0024 301.028C30.2669 301.651 29.9646 302.369 29.3412 302.633C28.7178 302.898 27.9999 302.595 27.7354 301.972C27.4709 301.349 27.7731 300.632 28.3966 300.367C29.02 300.103 29.7379 300.405 30.0024 301.028Z" fill="white"/>
<path d="M20.8019 307.354C21.0664 307.977 20.7641 308.695 20.1406 308.959C19.5172 309.224 18.7993 308.922 18.5348 308.298C18.2703 307.675 18.5726 306.958 19.196 306.693C19.8195 306.429 20.5374 306.731 20.8019 307.354Z" fill="white"/>
<path d="M11.5824 313.68C11.8469 314.304 11.5447 315.021 10.9212 315.286C10.2978 315.55 9.57987 315.248 9.31538 314.625C9.05089 314.001 9.35316 313.284 9.9766 313.02C10.6 312.755 11.318 313.057 11.5824 313.68Z" fill="white"/>
<path d="M2.36303 320.006C2.62752 320.63 2.32524 321.347 1.7018 321.612C1.07835 321.876 0.360448 321.574 0.0959564 320.951C-0.168535 320.328 0.133738 319.61 0.757183 319.346C1.38063 319.081 2.09854 319.383 2.36303 320.006Z" fill="white"/>
<path d="M281.584 67.7518L273.309 64.8248L272.232 67.8652C271.42 70.1501 272.629 72.6428 274.915 73.4548C277.201 74.2668 279.695 73.0583 280.507 70.7733L281.584 67.733V67.7518Z" fill="white"/>
<path d="M257.704 6.6243L266.281 8.45605L266.961 5.30242C267.472 2.94192 265.96 0.600307 263.599 0.0904395C261.237 -0.419428 258.894 1.09129 258.384 3.45179L257.704 6.60542V6.6243Z" fill="white"/>
<path d="M295.678 6.60548C288.329 0.732552 277.617 1.90336 271.722 9.24923C265.847 16.5951 267.018 27.3023 274.367 33.1941C281.716 39.0671 292.428 37.8963 298.323 30.5504C304.198 23.2045 303.027 12.4973 295.678 6.60548ZM276.634 30.3615C270.853 25.735 269.928 17.2938 274.556 11.5153C276.181 9.49473 278.278 8.07843 280.564 7.26641L298.323 21.505C298.039 23.9032 297.114 26.2637 295.489 28.2843C290.86 34.0628 282.415 34.9881 276.634 30.3615Z" fill="white"/>
<path d="M281.093 10.5899C279.317 11.2131 277.673 12.3273 276.408 13.8946C272.799 18.4079 273.517 24.9795 278.032 28.5864C282.548 32.1932 289.122 31.4756 292.731 26.9624C293.996 25.3761 294.714 23.5444 294.941 21.6748L281.093 10.571V10.5899Z" fill="#3F34A3"/>
<path d="M287.8 45.6764C288.215 47.2249 288.196 48.9244 287.611 50.5673L282.396 65.3158L274.329 62.4643L287.8 45.6764Z" fill="white"/>
<path d="M233.088 58.9708L231.841 60.5193C230.518 62.1811 230.783 64.5983 232.445 65.9201L237.792 70.2068C239.454 71.5287 241.873 71.2643 243.195 69.6214L244.442 68.0729L233.107 58.9897L233.088 58.9708Z" fill="white"/>
<path d="M246.256 65.7879L253.964 56.1759C254.493 55.5339 255.437 55.3262 256.117 55.8171C256.835 56.327 256.967 57.3467 256.42 58.0266L248.655 67.7141L259.99 76.7973L283.851 47.0361C285.551 44.9211 286.118 42.2773 285.684 39.8035C281.093 39.9546 276.427 38.5383 272.554 35.4413C268.681 32.3443 266.281 28.0954 265.431 23.5822C262.919 23.6955 260.463 24.8285 258.762 26.9435L234.901 56.7047L246.237 65.7879H246.256ZM258.271 53.2678C257.818 52.909 257.742 52.2481 258.101 51.7948C258.46 51.3416 259.121 51.2661 259.575 51.6249C260.028 51.9837 260.104 52.6446 259.745 53.079C259.386 53.5322 258.724 53.6077 258.29 53.2489L258.271 53.2678ZM260.803 50.1142C260.066 49.5288 259.952 48.4524 260.538 47.7159C261.124 46.9794 262.201 46.8661 262.937 47.4515C263.674 48.0369 263.788 49.1133 263.202 49.8498C262.616 50.5863 261.539 50.6996 260.803 50.1142ZM263.126 36.2722C263.806 35.4224 265.053 35.2902 265.885 35.9701L273.498 42.0696C274.348 42.7494 274.481 43.9958 273.8 44.8267L271.193 48.0747C270.513 48.9245 269.266 49.0567 268.435 48.3768L260.822 42.2773C259.971 41.5975 259.839 40.3511 260.519 39.5203L263.126 36.2722Z" fill="white"/>
<path d="M246.841 69.9801L245.594 71.5286C244.272 73.1904 244.536 75.6075 246.18 76.9294L251.526 81.2161C253.189 82.538 255.607 82.2736 256.93 80.6307L258.177 79.0822L246.841 69.999V69.9801Z" fill="white"/>
<path d="M257.232 25.2061C258.819 23.2233 260.973 22.0148 263.278 21.5615L265.563 10.9298L257.194 9.13586L252.452 31.1546L257.213 25.2061H257.232Z" fill="white"/>
</svg>
