<svg width="1360" height="612" viewBox="0 0 1360 612" fill="none" xmlns="http://www.w3.org/2000/svg" preserveAspectRatio="none">
<g filter="url(#filter0_d_752_2155)">
<path d="M1323.55 283.779C1335.51 275.733 1348.03 268.561 1360.89 261.74V219.935C1340.58 238.213 1321.52 257.192 1301.1 275.471C1280.68 293.749 1257.78 312.203 1228.34 323.835C1199.35 335.204 1166.3 338.091 1134.15 331.444C1095.79 323.573 1067.71 306.168 1039.96 287.015C1011.08 267.075 981.635 248.446 939.784 243.986C890.939 238.738 845.817 254.218 805.319 271.36C742.374 298.122 676.383 328.82 598.66 325.059C541.354 322.261 493.299 299.959 455.396 271.36C411.515 238.213 378.463 198.857 345.975 160.288C329.167 140.348 312.584 120.32 294.761 100.817C277.389 81.751 259.34 61.9855 235.425 46.418C173.495 6.01236 80.4304 -8.76806 0 5.05031V23.6789C1.57928 23.6789 3.04575 23.5914 4.62503 23.504C41.9637 22.8918 79.528 28.5765 115.175 38.1969C156.574 49.3915 197.41 66.5333 228.544 93.2955C256.633 117.346 280.096 151.193 271.185 186.788C263.063 219.148 231.59 243.024 194.815 249.583C173.157 253.431 151.498 252.032 131.08 244.598C109.647 236.814 90.6957 224.92 71.406 213.9C61.9303 208.478 52.229 202.793 41.9637 198.682C30.2319 193.96 18.0489 189.849 5.64028 186.788C3.83539 186.351 1.9177 185.914 0.112806 185.476V600.902C2.82014 601.427 5.52748 601.864 8.34762 602.301C48.9576 608.161 88.6652 598.366 120.138 580.524C148.452 564.519 170.788 543.442 194.59 524.464C216.812 506.71 240.614 489.568 269.267 476.624C306.606 459.832 350.713 448.812 393.917 441.379C438.475 433.682 484.387 429.484 530.299 429.134C571.135 428.872 611.181 431.758 650.663 439.105C688.002 446.014 723.874 455.722 759.633 465.692C830.926 485.632 904.137 506.01 982.537 503.474C1062.18 500.937 1133.47 476.712 1199.58 447.675C1251.58 424.849 1302.57 397.737 1361 383.044V354.095C1357.84 354.533 1354.68 354.97 1351.52 355.407C1338.21 357.069 1324.23 358.206 1310.91 356.019C1301.44 354.445 1291.4 350.859 1286.89 342.901C1273.58 319.637 1305.27 296.198 1323.66 283.867L1323.55 283.779ZM205.081 419.689C201.02 442.865 180.038 461.057 157.364 471.989C134.126 483.096 104.909 489.48 78.8511 483.096C55.1619 477.324 36.3234 458.695 34.7441 437.355C30.2319 426.336 31.36 414.267 38.6923 403.072C50.1985 385.318 71.0676 372.549 92.275 364.94C116.303 356.282 145.858 352.521 170.111 362.841C193.913 372.899 209.142 396.775 205.081 419.776V419.689ZM398.994 350.422C387.262 356.282 369.1 357.069 357.594 350.072C349.133 344.912 345.411 336.166 346.426 327.333C346.652 325.759 346.877 324.185 347.329 322.61C345.411 314.564 347.554 306.431 355.902 300.833C365.941 294.099 380.606 292.525 392.451 296.198C405.311 300.221 415.914 309.929 416.478 322.173C416.93 333.368 410.161 344.65 398.881 350.335L398.994 350.422ZM978.814 418.202C950.275 442.778 909.101 458.083 872.777 455.809C839.612 453.71 801.935 442.69 780.615 419.252C770.575 408.232 764.935 394.588 766.289 380.42C767.755 365.377 775.088 351.122 785.917 339.402C808.929 314.739 844.576 299.784 879.771 293.225C921.848 285.353 1004.65 290.601 1013.56 338.528C1019.09 368.439 1003.74 396.775 978.814 418.115V418.202ZM1076.05 455.284C1064.32 466.129 1047.17 473.563 1029.8 473.476C1015.03 473.476 996.751 467.266 992.915 453.36C990.095 443.303 995.059 432.633 1003.52 424.324C1004.87 422.05 1006.45 419.864 1008.26 418.115C1019.09 407.445 1038.38 403.422 1054.17 403.772C1067.03 404.034 1083.27 407.795 1087.67 419.864C1092.18 432.283 1085.87 446.276 1076.05 455.372V455.284Z" fill="#1C1749"/>
</g>
<defs>
<filter id="filter0_d_752_2155" x="-4" y="0" width="1369" height="612" filterUnits="userSpaceOnUse" color-interpolation-filters="sRGB">
<feFlood flood-opacity="0" result="BackgroundImageFix"/>
<feColorMatrix in="SourceAlpha" type="matrix" values="0 0 0 0 0 0 0 0 0 0 0 0 0 0 0 0 0 0 127 0" result="hardAlpha"/>
<feOffset dy="4"/>
<feGaussianBlur stdDeviation="2"/>
<feComposite in2="hardAlpha" operator="out"/>
<feColorMatrix type="matrix" values="0 0 0 0 0 0 0 0 0 0 0 0 0 0 0 0 0 0 0.25 0"/>
<feBlend mode="normal" in2="BackgroundImageFix" result="effect1_dropShadow_752_2155"/>
<feBlend mode="normal" in="SourceGraphic" in2="effect1_dropShadow_752_2155" result="shape"/>
</filter>
</defs>
</svg>
