<svg width="1360" height="558" viewBox="0 0 1360 558" fill="none" xmlns="http://www.w3.org/2000/svg">
<ellipse cx="235.451" cy="405.818" rx="89.6147" ry="66.9842" transform="rotate(-8.00976 235.451 405.818)" fill="#1C1749"/>
<path d="M133.249 355.034C180.033 339.256 226.028 320.097 273.263 306.235C319.708 292.599 367.845 284.033 415.981 288.429C467.049 293.049 516.2 311.419 562.871 334.636C611.121 358.753 657.115 387.83 704.012 415.103C751.359 442.602 800.06 467.509 850.225 488.02C953.714 530.283 1064.19 555.978 1174.44 557.443C1231.71 558.232 1289.2 552.71 1345.23 539.073C1350.19 537.834 1355.15 536.594 1360 535.354V308.602C1333.51 319.647 1306.34 329.113 1278.49 335.988C1186.73 358.641 1088.54 359.768 998.017 329.226C952.924 314.012 909.41 291.472 871.532 259.916C839.854 233.656 812.009 202.439 784.841 170.544C730.842 107.207 675.378 36.2061 597.593 10.9613C555.995 -2.56269 510.338 -3.91507 468.402 8.82002C428.269 21.1043 391.97 44.5459 358.939 72.2701C324.781 100.896 293.442 133.466 261.313 164.797C231.326 194.211 200.212 224.077 165.04 245.603C116.452 275.243 54.9005 294.853 0 282.23V374.419C44.6419 384.674 89.7347 369.685 133.249 355.034Z" fill="#1C1749"/>
</svg>
