<svg width="1360" height="600" viewBox="0 0 1360 600" fill="none" xmlns="http://www.w3.org/2000/svg">
<path d="M75.7822 188.795L73 189.504L75.7822 190.23L74.317 192.705L76.7865 191.237L77.4944 194.025L78.2187 191.237L80.6882 192.705L79.223 190.23L82.0052 189.504L79.223 188.795L80.6882 186.32L78.2187 187.788L77.4944 185L76.7865 187.788L74.317 186.32L75.7822 188.795ZM77.1157 189.125L77.4121 189.306L77.4944 188.96L77.5767 189.306L77.873 189.125L77.6919 189.422L78.0376 189.504L77.6919 189.587L77.873 189.884L77.5767 189.702L77.4944 190.049L77.4121 189.702L77.1157 189.884L77.2968 189.587L76.9511 189.504L77.2968 189.422L77.1157 189.125Z" fill="#F7F5FE"/>
<path d="M117.782 314.795L115 315.504L117.782 316.23L116.317 318.705L118.786 317.237L119.494 320.025L120.219 317.237L122.688 318.705L121.223 316.23L124.005 315.504L121.223 314.795L122.688 312.32L120.219 313.788L119.494 311L118.786 313.788L116.317 312.32L117.782 314.795ZM119.116 315.125L119.412 315.306L119.494 314.96L119.577 315.306L119.873 315.125L119.692 315.422L120.038 315.504L119.692 315.587L119.873 315.884L119.577 315.702L119.494 316.049L119.412 315.702L119.116 315.884L119.297 315.587L118.951 315.504L119.297 315.422L119.116 315.125Z" fill="#F7F5FE"/>
<path d="M11.7624 549.795L8.98016 550.504L11.7624 551.23L10.2972 553.705L12.7666 552.237L13.4745 555.025L14.1989 552.237L16.6683 553.705L15.2031 551.23L17.9854 550.504L15.2031 549.795L16.6683 547.32L14.1989 548.788L13.4745 546L12.7666 548.788L10.2972 547.32L11.7624 549.795ZM13.0959 550.125L13.3922 550.306L13.4745 549.96L13.5568 550.306L13.8532 550.125L13.6721 550.422L14.0178 550.504L13.6721 550.587L13.8532 550.884L13.5568 550.702L13.4745 551.049L13.3922 550.702L13.0959 550.884L13.277 550.587L12.9312 550.504L13.277 550.422L13.0959 550.125Z" fill="#F7F5FE"/>
<path d="M764.782 378.795L762 379.504L764.782 380.23L763.317 382.705L765.786 381.237L766.494 384.025L767.219 381.237L769.688 382.705L768.223 380.23L771.005 379.504L768.223 378.795L769.688 376.32L767.219 377.788L766.494 375L765.786 377.788L763.317 376.32L764.782 378.795ZM766.116 379.125L766.412 379.306L766.494 378.96L766.577 379.306L766.873 379.125L766.692 379.422L767.038 379.504L766.692 379.587L766.873 379.884L766.577 379.702L766.494 380.049L766.412 379.702L766.116 379.884L766.297 379.587L765.951 379.504L766.297 379.422L766.116 379.125Z" fill="#F7F5FE"/>
<path d="M126.782 440.795L124 441.504L126.782 442.23L125.317 444.705L127.786 443.237L128.494 446.025L129.219 443.237L131.688 444.705L130.223 442.23L133.005 441.504L130.223 440.795L131.688 438.32L129.219 439.788L128.494 437L127.786 439.788L125.317 438.32L126.782 440.795ZM128.116 441.125L128.412 441.306L128.494 440.96L128.577 441.306L128.873 441.125L128.692 441.422L129.038 441.504L128.692 441.587L128.873 441.884L128.577 441.702L128.494 442.049L128.412 441.702L128.116 441.884L128.297 441.587L127.951 441.504L128.297 441.422L128.116 441.125Z" fill="#F7F5FE"/>
<path d="M894.373 54.3935L891.591 55.1029L894.373 55.8289L892.908 58.3038L895.377 56.8353L896.085 59.6237L896.809 56.8353L899.279 58.3038L897.814 55.8289L900.596 55.1029L897.814 54.3935L899.279 51.9186L896.809 53.387L896.085 50.5986L895.377 53.387L892.908 51.9186L894.373 54.3935ZM895.706 54.7234L896.003 54.9049L896.085 54.5584L896.167 54.9049L896.464 54.7234L896.283 55.0204L896.628 55.1029L896.283 55.1854L896.464 55.4824L896.167 55.3009L896.085 55.6474L896.003 55.3009L895.706 55.4824L895.887 55.1854L895.542 55.1029L895.887 55.0204L895.706 54.7234Z" fill="#F7F5FE"/>
<path d="M1321.78 87.7948L1319 88.5043L1321.78 89.2302L1320.32 91.7051L1322.79 90.2367L1323.49 93.0251L1324.22 90.2367L1326.69 91.7051L1325.22 89.2302L1328.01 88.5043L1325.22 87.7948L1326.69 85.3199L1324.22 86.7884L1323.49 84L1322.79 86.7884L1320.32 85.3199L1321.78 87.7948ZM1323.12 88.1248L1323.41 88.3063L1323.49 87.9598L1323.58 88.3063L1323.87 88.1248L1323.69 88.4218L1324.04 88.5043L1323.69 88.5868L1323.87 88.8838L1323.58 88.7023L1323.49 89.0488L1323.41 88.7023L1323.12 88.8838L1323.3 88.5868L1322.95 88.5043L1323.3 88.4218L1323.12 88.1248Z" fill="#F7F5FE"/>
<path d="M1241.78 348.795L1239 349.504L1241.78 350.23L1240.32 352.705L1242.79 351.237L1243.49 354.025L1244.22 351.237L1246.69 352.705L1245.22 350.23L1248.01 349.504L1245.22 348.795L1246.69 346.32L1244.22 347.788L1243.49 345L1242.79 347.788L1240.32 346.32L1241.78 348.795ZM1243.12 349.125L1243.41 349.306L1243.49 348.96L1243.58 349.306L1243.87 349.125L1243.69 349.422L1244.04 349.504L1243.69 349.587L1243.87 349.884L1243.58 349.702L1243.49 350.049L1243.41 349.702L1243.12 349.884L1243.3 349.587L1242.95 349.504L1243.3 349.422L1243.12 349.125Z" fill="#F7F5FE"/>
<path d="M1315.78 513.795L1313 514.504L1315.78 515.23L1314.32 517.705L1316.79 516.237L1317.49 519.025L1318.22 516.237L1320.69 517.705L1319.22 515.23L1322.01 514.504L1319.22 513.795L1320.69 511.32L1318.22 512.788L1317.49 510L1316.79 512.788L1314.32 511.32L1315.78 513.795ZM1317.12 514.125L1317.41 514.306L1317.49 513.96L1317.58 514.306L1317.87 514.125L1317.69 514.422L1318.04 514.504L1317.69 514.587L1317.87 514.884L1317.58 514.702L1317.49 515.049L1317.41 514.702L1317.12 514.884L1317.3 514.587L1316.95 514.504L1317.3 514.422L1317.12 514.125Z" fill="#F7F5FE"/>
<path d="M1037.78 422.795L1035 423.504L1037.78 424.23L1036.32 426.705L1038.79 425.237L1039.49 428.025L1040.22 425.237L1042.69 426.705L1041.22 424.23L1044.01 423.504L1041.22 422.795L1042.69 420.32L1040.22 421.788L1039.49 419L1038.79 421.788L1036.32 420.32L1037.78 422.795ZM1039.12 423.125L1039.41 423.306L1039.49 422.96L1039.58 423.306L1039.87 423.125L1039.69 423.422L1040.04 423.504L1039.69 423.587L1039.87 423.884L1039.58 423.702L1039.49 424.049L1039.41 423.702L1039.12 423.884L1039.3 423.587L1038.95 423.504L1039.3 423.422L1039.12 423.125Z" fill="#F7F5FE"/>
<path d="M1045.42 100.101C1045.93 100.101 1046.34 99.6877 1046.34 99.1774C1046.34 98.6671 1045.93 98.2534 1045.42 98.2534C1044.91 98.2534 1044.5 98.6671 1044.5 99.1774C1044.5 99.6877 1044.91 100.101 1045.42 100.101Z" fill="#F7F5FE"/>
<path d="M858.841 353.09C859.35 353.09 859.763 352.676 859.763 352.166C859.763 351.655 859.35 351.242 858.841 351.242C858.332 351.242 857.919 351.655 857.919 352.166C857.919 352.676 858.332 353.09 858.841 353.09Z" fill="#F7F5FE"/>
<path d="M819.922 190.848C820.431 190.848 820.844 190.434 820.844 189.924C820.844 189.414 820.431 189 819.922 189C819.413 189 819 189.414 819 189.924C819 190.434 819.413 190.848 819.922 190.848Z" fill="#F7F5FE"/>
<path d="M617.922 121.848C618.431 121.848 618.844 121.434 618.844 120.924C618.844 120.414 618.431 120 617.922 120C617.413 120 617 120.414 617 120.924C617 121.434 617.413 121.848 617.922 121.848Z" fill="#F7F5FE"/>
<path d="M953.922 284.848C954.431 284.848 954.844 284.434 954.844 283.924C954.844 283.414 954.431 283 953.922 283C953.413 283 953 283.414 953 283.924C953 284.434 953.413 284.848 953.922 284.848Z" fill="#F7F5FE"/>
<path d="M877.147 429.729C877.656 429.729 878.069 429.315 878.069 428.805C878.069 428.295 877.656 427.881 877.147 427.881C876.638 427.881 876.225 428.295 876.225 428.805C876.225 429.315 876.638 429.729 877.147 429.729Z" fill="#F7F5FE"/>
<path d="M1167.92 544.848C1168.43 544.848 1168.84 544.434 1168.84 543.924C1168.84 543.414 1168.43 543 1167.92 543C1167.41 543 1167 543.414 1167 543.924C1167 544.434 1167.41 544.848 1167.92 544.848Z" fill="#F7F5FE"/>
<path d="M217.885 326.691C218.394 326.691 218.807 326.277 218.807 325.767C218.807 325.256 218.394 324.843 217.885 324.843C217.376 324.843 216.963 325.256 216.963 325.767C216.963 326.277 217.376 326.691 217.885 326.691Z" fill="#F7F5FE"/>
<path d="M1228.22 116.784L1231 117.492L1228.22 118.216L1229.68 120.684L1227.22 119.219L1226.51 122L1225.78 119.219L1223.32 120.684L1224.78 118.216L1222 117.492L1224.78 116.784L1223.32 114.316L1225.78 115.781L1226.51 113L1227.22 115.781L1229.68 114.316L1228.22 116.784ZM1226.89 117.113L1226.59 117.294L1226.51 116.949L1226.43 117.294L1226.13 117.113L1226.31 117.41L1225.97 117.492L1226.31 117.574L1226.13 117.87L1226.43 117.689L1226.51 118.035L1226.59 117.689L1226.89 117.87L1226.71 117.574L1227.05 117.492L1226.71 117.41L1226.89 117.113Z" fill="#F7F5FE"/>
<path d="M1310.53 251.784L1313 252.492L1310.53 253.216L1311.83 255.684L1309.64 254.219L1309.01 257L1308.36 254.219L1306.17 255.684L1307.47 253.216L1305 252.492L1307.47 251.784L1306.17 249.316L1308.36 250.781L1309.01 248L1309.64 250.781L1311.83 249.316L1310.53 251.784ZM1309.34 252.113L1309.08 252.294L1309.01 251.949L1308.93 252.294L1308.67 252.113L1308.83 252.41L1308.52 252.492L1308.83 252.574L1308.67 252.87L1308.93 252.689L1309.01 253.035L1309.08 252.689L1309.34 252.87L1309.18 252.574L1309.49 252.492L1309.18 252.41L1309.34 252.113Z" fill="#F7F5FE"/>
<path d="M170.219 87.7843L173 88.4918L170.219 89.2157L171.684 91.6837L169.216 90.2194L168.508 93L167.784 90.2194L165.316 91.6837L166.781 89.2157L164 88.4918L166.781 87.7843L165.316 85.3163L167.784 86.7806L168.508 84L169.216 86.7806L171.684 85.3163L170.219 87.7843ZM168.887 88.1133L168.59 88.2943L168.508 87.9488L168.426 88.2943L168.13 88.1133L168.311 88.4095L167.965 88.4918L168.311 88.574L168.13 88.8702L168.426 88.6892L168.508 89.0347L168.59 88.6892L168.887 88.8702L168.706 88.574L169.051 88.4918L168.706 88.4095L168.887 88.1133Z" fill="#F7F5FE"/>
<path d="M756.219 99.3638L759 99.9927L756.219 100.636L757.684 102.83L755.216 101.528L754.508 104L753.784 101.528L751.316 102.83L752.781 100.636L750 99.9927L752.781 99.3638L751.316 97.17L753.784 98.4717L754.508 96L755.216 98.4717L757.684 97.17L756.219 99.3638ZM754.887 99.6563L754.59 99.8172L754.508 99.5101L754.426 99.8172L754.13 99.6563L754.311 99.9196L753.965 99.9927L754.311 100.066L754.13 100.329L754.426 100.168L754.508 100.475L754.59 100.168L754.887 100.329L754.706 100.066L755.051 99.9927L754.706 99.9196L754.887 99.6563Z" fill="#F7F5FE"/>
<path d="M550.922 358.848C551.431 358.848 551.844 358.434 551.844 357.924C551.844 357.414 551.431 357 550.922 357C550.413 357 550 357.414 550 357.924C550 358.434 550.413 358.848 550.922 358.848Z" fill="#F7F5FE"/>
<path d="M534.528 159.784L537 160.492L534.528 161.216L535.83 163.684L533.636 162.219L533.007 165L532.364 162.219L530.17 163.684L531.472 161.216L529 160.492L531.472 159.784L530.17 157.316L532.364 158.781L533.007 156L533.636 158.781L535.83 157.316L534.528 159.784ZM533.344 160.113L533.08 160.294L533.007 159.949L532.934 160.294L532.671 160.113L532.832 160.41L532.525 160.492L532.832 160.574L532.671 160.87L532.934 160.689L533.007 161.035L533.08 160.689L533.344 160.87L533.183 160.574L533.49 160.492L533.183 160.41L533.344 160.113Z" fill="#F7F5FE"/>
<path d="M1063.22 194.784L1066 195.492L1063.22 196.216L1064.68 198.684L1062.22 197.219L1061.51 200L1060.78 197.219L1058.32 198.684L1059.78 196.216L1057 195.492L1059.78 194.784L1058.32 192.316L1060.78 193.781L1061.51 191L1062.22 193.781L1064.68 192.316L1063.22 194.784ZM1061.89 195.113L1061.59 195.294L1061.51 194.949L1061.43 195.294L1061.13 195.113L1061.31 195.41L1060.97 195.492L1061.31 195.574L1061.13 195.87L1061.43 195.689L1061.51 196.035L1061.59 195.689L1061.89 195.87L1061.71 195.574L1062.05 195.492L1061.71 195.41L1061.89 195.113Z" fill="#F7F5FE"/>
<path d="M1254.22 449.784L1257 450.492L1254.22 451.216L1255.68 453.684L1253.22 452.219L1252.51 455L1251.78 452.219L1249.32 453.684L1250.78 451.216L1248 450.492L1250.78 449.784L1249.32 447.316L1251.78 448.781L1252.51 446L1253.22 448.781L1255.68 447.316L1254.22 449.784ZM1252.89 450.113L1252.59 450.294L1252.51 449.949L1252.43 450.294L1252.13 450.113L1252.31 450.41L1251.97 450.492L1252.31 450.574L1252.13 450.87L1252.43 450.689L1252.51 451.035L1252.59 450.689L1252.89 450.87L1252.71 450.574L1253.05 450.492L1252.71 450.41L1252.89 450.113Z" fill="#F7F5FE"/>
<path d="M472.219 53.3638L475 53.9927L472.219 54.6362L473.684 56.83L471.216 55.5283L470.508 58L469.784 55.5283L467.316 56.83L468.781 54.6362L466 53.9927L468.781 53.3638L467.316 51.17L469.784 52.4717L470.508 50L471.216 52.4717L473.684 51.17L472.219 53.3638ZM470.887 53.6563L470.59 53.8172L470.508 53.5101L470.426 53.8172L470.13 53.6563L470.311 53.9196L469.965 53.9927L470.311 54.0658L470.13 54.3291L470.426 54.1682L470.508 54.4753L470.59 54.1682L470.887 54.3291L470.706 54.0658L471.051 53.9927L470.706 53.9196L470.887 53.6563Z" fill="#F7F5FE"/>
<path d="M55.2194 25.7843L58 26.4918L55.2194 27.2157L56.6837 29.6837L54.2157 28.2194L53.5082 31L52.7843 28.2194L50.3163 29.6837L51.7806 27.2157L49 26.4918L51.7806 25.7843L50.3163 23.3163L52.7843 24.7806L53.5082 22L54.2157 24.7806L56.6837 23.3163L55.2194 25.7843ZM53.8866 26.1133L53.5905 26.2943L53.5082 25.9488L53.426 26.2943L53.1298 26.1133L53.3108 26.4095L52.9653 26.4918L53.3108 26.574L53.1298 26.8702L53.426 26.6892L53.5082 27.0347L53.5905 26.6892L53.8866 26.8702L53.7057 26.574L54.0512 26.4918L53.7057 26.4095L53.8866 26.1133Z" fill="#F7F5FE"/>
<path d="M31.2194 295.364L34 295.993L31.2194 296.636L32.6837 298.83L30.2157 297.528L29.5082 300L28.7843 297.528L26.3163 298.83L27.7806 296.636L25 295.993L27.7806 295.364L26.3163 293.17L28.7843 294.472L29.5082 292L30.2157 294.472L32.6837 293.17L31.2194 295.364ZM29.8866 295.656L29.5905 295.817L29.5082 295.51L29.426 295.817L29.1298 295.656L29.3108 295.92L28.9653 295.993L29.3108 296.066L29.1298 296.329L29.426 296.168L29.5082 296.475L29.5905 296.168L29.8866 296.329L29.7057 296.066L30.0512 295.993L29.7057 295.92L29.8866 295.656Z" fill="#F7F5FE"/>
<path d="M165.528 509.784L168 510.492L165.528 511.216L166.83 513.684L164.636 512.219L164.007 515L163.364 512.219L161.17 513.684L162.472 511.216L160 510.492L162.472 509.784L161.17 507.316L163.364 508.781L164.007 506L164.636 508.781L166.83 507.316L165.528 509.784ZM164.344 510.113L164.08 510.294L164.007 509.949L163.934 510.294L163.671 510.113L163.832 510.41L163.525 510.492L163.832 510.574L163.671 510.87L163.934 510.689L164.007 511.035L164.08 510.689L164.344 510.87L164.183 510.574L164.49 510.492L164.183 510.41L164.344 510.113Z" fill="#F7F5FE"/>
<path d="M326 97C325.448 97 325 96.5523 325 96C325 95.4477 325.448 95 326 95C326.552 95 327 95.4477 327 96C327 96.5523 326.552 97 326 97Z" fill="#F7F5FE"/>
<path d="M385 414C384.448 414 384 413.776 384 413.5C384 413.224 384.448 413 385 413C385.552 413 386 413.224 386 413.5C386 413.776 385.552 414 385 414Z" fill="#F7F5FE"/>
<path d="M447 216C446.448 216 446 215.776 446 215.5C446 215.224 446.448 215 447 215C447.552 215 448 215.224 448 215.5C448 215.776 447.552 216 447 216Z" fill="#F7F5FE"/>
<path d="M489 415C488.448 415 488 414.776 488 414.5C488 414.224 488.448 414 489 414C489.552 414 490 414.224 490 414.5C490 414.776 489.552 415 489 415Z" fill="#F7F5FE"/>
<path d="M253 415C252.448 415 252 414.552 252 414C252 413.448 252.448 413 253 413C253.552 413 254 413.448 254 414C254 414.552 253.552 415 253 415Z" fill="#F7F5FE"/>
<path d="M355 300C354.448 300 354 299.552 354 299C354 298.448 354.448 298 355 298C355.552 298 356 298.448 356 299C356 299.552 355.552 300 355 300Z" fill="#F7F5FE"/>
<path d="M216 215C215.448 215 215 214.552 215 214C215 213.448 215.448 213 216 213C216.552 213 217 213.448 217 214C217 214.552 216.552 215 216 215Z" fill="#F7F5FE"/>
<path d="M1126.5 316C1126.22 316 1126 315.552 1126 315C1126 314.448 1126.22 314 1126.5 314C1126.78 314 1127 314.448 1127 315C1127 315.552 1126.78 316 1126.5 316Z" fill="#F7F5FE"/>
<path d="M1141.5 209C1141.22 209 1141 208.552 1141 208C1141 207.448 1141.22 207 1141.5 207C1141.78 207 1142 207.448 1142 208C1142 208.552 1141.78 209 1141.5 209Z" fill="#F7F5FE"/>
<path d="M1039.5 332C1039.22 332 1039 331.552 1039 331C1039 330.448 1039.22 330 1039.5 330C1039.78 330 1040 330.448 1040 331C1040 331.552 1039.78 332 1039.5 332Z" fill="#F7F5FE"/>
<path d="M1169.5 430C1169.22 430 1169 429.552 1169 429C1169 428.448 1169.22 428 1169.5 428C1169.78 428 1170 428.448 1170 429C1170 429.552 1169.78 430 1169.5 430Z" fill="#F7F5FE"/>
<path d="M1152.5 59C1152.22 59 1152 58.5523 1152 58C1152 57.4477 1152.22 57 1152.5 57C1152.78 57 1153 57.4477 1153 58C1153 58.5523 1152.78 59 1152.5 59Z" fill="#F7F5FE"/>
</svg>
