<svg width="1360" height="600" viewBox="0 0 1360 600" fill="none" xmlns="http://www.w3.org/2000/svg">
<path d="M75.7822 188.795L73 189.504L75.7822 190.23L74.317 192.705L76.7865 191.237L77.4944 194.025L78.2187 191.237L80.6882 192.705L79.223 190.23L82.0052 189.504L79.223 188.795L80.6882 186.32L78.2187 187.788L77.4944 185L76.7865 187.788L74.317 186.32L75.7822 188.795ZM77.1157 189.125L77.4121 189.306L77.4944 188.96L77.5767 189.306L77.873 189.125L77.6919 189.422L78.0376 189.504L77.6919 189.587L77.873 189.884L77.5767 189.702L77.4944 190.049L77.4121 189.702L77.1157 189.884L77.2968 189.587L76.9511 189.504L77.2968 189.422L77.1157 189.125Z" fill="#F7F5FE"/>
<path d="M117.782 314.795L115 315.504L117.782 316.23L116.317 318.705L118.786 317.237L119.494 320.025L120.219 317.237L122.688 318.705L121.223 316.23L124.005 315.504L121.223 314.795L122.688 312.32L120.219 313.788L119.494 311L118.786 313.788L116.317 312.32L117.782 314.795ZM119.116 315.125L119.412 315.306L119.494 314.96L119.577 315.306L119.873 315.125L119.692 315.422L120.038 315.504L119.692 315.587L119.873 315.884L119.577 315.702L119.494 316.049L119.412 315.702L119.116 315.884L119.297 315.587L118.951 315.504L119.297 315.422L119.116 315.125Z" fill="#F7F5FE"/>
<path d="M11.7624 549.795L8.98022 550.504L11.7624 551.23L10.2972 553.705L12.7667 552.237L13.4746 555.025L14.199 552.237L16.6684 553.705L15.2032 551.23L17.9854 550.504L15.2032 549.795L16.6684 547.32L14.199 548.788L13.4746 546L12.7667 548.788L10.2972 547.32L11.7624 549.795ZM13.096 550.125L13.3923 550.306L13.4746 549.96L13.5569 550.306L13.8532 550.125L13.6721 550.422L14.0179 550.504L13.6721 550.587L13.8532 550.884L13.5569 550.702L13.4746 551.049L13.3923 550.702L13.096 550.884L13.277 550.587L12.9313 550.504L13.277 550.422L13.096 550.125Z" fill="#F7F5FE"/>
<path d="M612.309 111.591L609.526 112.3L612.309 113.026L610.843 115.501L613.313 114.033L614.021 116.821L614.745 114.033L617.215 115.501L615.749 113.026L618.532 112.3L615.749 111.591L617.215 109.116L614.745 110.584L614.021 107.796L613.313 110.584L610.843 109.116L612.309 111.591ZM613.642 111.921L613.938 112.102L614.021 111.756L614.103 112.102L614.399 111.921L614.218 112.218L614.564 112.3L614.218 112.383L614.399 112.68L614.103 112.498L614.021 112.845L613.938 112.498L613.642 112.68L613.823 112.383L613.477 112.3L613.823 112.218L613.642 111.921Z" fill="#F7F5FE"/>
<path d="M761.572 334.88L758.79 335.59L761.572 336.316L760.107 338.791L762.576 337.322L763.284 340.111L764.009 337.322L766.478 338.791L765.013 336.316L767.795 335.59L765.013 334.88L766.478 332.405L764.009 333.874L763.284 331.085L762.576 333.874L760.107 332.405L761.572 334.88ZM762.906 335.21L763.202 335.392L763.284 335.045L763.367 335.392L763.663 335.21L763.482 335.507L763.828 335.59L763.482 335.672L763.663 335.969L763.367 335.788L763.284 336.134L763.202 335.788L762.906 335.969L763.087 335.672L762.741 335.59L763.087 335.507L762.906 335.21Z" fill="#F7F5FE"/>
<path d="M871.782 217.795L869 218.504L871.782 219.23L870.317 221.705L872.786 220.237L873.494 223.025L874.219 220.237L876.688 221.705L875.223 219.23L878.005 218.504L875.223 217.795L876.688 215.32L874.219 216.788L873.494 214L872.786 216.788L870.317 215.32L871.782 217.795ZM873.116 218.125L873.412 218.306L873.494 217.96L873.577 218.306L873.873 218.125L873.692 218.422L874.038 218.504L873.692 218.587L873.873 218.884L873.577 218.702L873.494 219.049L873.412 218.702L873.116 218.884L873.297 218.587L872.951 218.504L873.297 218.422L873.116 218.125Z" fill="#F7F5FE"/>
<path d="M643.039 482.273L640.257 482.983L643.039 483.709L641.574 486.184L644.044 484.715L644.751 487.504L645.476 484.715L647.945 486.184L646.48 483.709L649.262 482.983L646.48 482.273L647.945 479.798L645.476 481.267L644.751 478.479L644.044 481.267L641.574 479.798L643.039 482.273ZM644.373 482.603L644.669 482.785L644.751 482.438L644.834 482.785L645.13 482.603L644.949 482.9L645.295 482.983L644.949 483.065L645.13 483.362L644.834 483.181L644.751 483.527L644.669 483.181L644.373 483.362L644.554 483.065L644.208 482.983L644.554 482.9L644.373 482.603Z" fill="#F7F5FE"/>
<path d="M673.782 548.795L671 549.504L673.782 550.23L672.317 552.705L674.786 551.237L675.494 554.025L676.219 551.237L678.688 552.705L677.223 550.23L680.005 549.504L677.223 548.795L678.688 546.32L676.219 547.788L675.494 545L674.786 547.788L672.317 546.32L673.782 548.795ZM675.116 549.125L675.412 549.306L675.494 548.96L675.577 549.306L675.873 549.125L675.692 549.422L676.038 549.504L675.692 549.587L675.873 549.884L675.577 549.702L675.494 550.049L675.412 549.702L675.116 549.884L675.297 549.587L674.951 549.504L675.297 549.422L675.116 549.125Z" fill="#F7F5FE"/>
<path d="M126.782 440.795L124 441.504L126.782 442.23L125.317 444.705L127.786 443.237L128.494 446.025L129.219 443.237L131.688 444.705L130.223 442.23L133.005 441.504L130.223 440.795L131.688 438.32L129.219 439.788L128.494 437L127.786 439.788L125.317 438.32L126.782 440.795ZM128.116 441.125L128.412 441.306L128.494 440.96L128.577 441.306L128.873 441.125L128.692 441.422L129.038 441.504L128.692 441.587L128.873 441.884L128.577 441.702L128.494 442.049L128.412 441.702L128.116 441.884L128.297 441.587L127.951 441.504L128.297 441.422L128.116 441.125Z" fill="#F7F5FE"/>
<path d="M894.373 54.3935L891.591 55.1029L894.373 55.8289L892.908 58.3038L895.377 56.8353L896.085 59.6237L896.809 56.8353L899.279 58.3038L897.814 55.8289L900.596 55.1029L897.814 54.3935L899.279 51.9186L896.809 53.387L896.085 50.5986L895.377 53.387L892.908 51.9186L894.373 54.3935ZM895.706 54.7234L896.003 54.9049L896.085 54.5584L896.167 54.9049L896.464 54.7234L896.283 55.0204L896.628 55.1029L896.283 55.1854L896.464 55.4824L896.167 55.3009L896.085 55.6474L896.003 55.3009L895.706 55.4824L895.887 55.1854L895.542 55.1029L895.887 55.0204L895.706 54.7234Z" fill="#F7F5FE"/>
<path d="M1321.78 87.7948L1319 88.5043L1321.78 89.2302L1320.32 91.7051L1322.79 90.2367L1323.49 93.0251L1324.22 90.2367L1326.69 91.7051L1325.22 89.2302L1328.01 88.5043L1325.22 87.7948L1326.69 85.3199L1324.22 86.7884L1323.49 84L1322.79 86.7884L1320.32 85.3199L1321.78 87.7948ZM1323.12 88.1248L1323.41 88.3063L1323.49 87.9598L1323.58 88.3063L1323.87 88.1248L1323.69 88.4218L1324.04 88.5043L1323.69 88.5868L1323.87 88.8838L1323.58 88.7023L1323.49 89.0488L1323.41 88.7023L1323.12 88.8838L1323.3 88.5868L1322.95 88.5043L1323.3 88.4218L1323.12 88.1248Z" fill="#F7F5FE"/>
<path d="M1241.78 348.795L1239 349.504L1241.78 350.23L1240.32 352.705L1242.79 351.237L1243.49 354.025L1244.22 351.237L1246.69 352.705L1245.22 350.23L1248.01 349.504L1245.22 348.795L1246.69 346.32L1244.22 347.788L1243.49 345L1242.79 347.788L1240.32 346.32L1241.78 348.795ZM1243.12 349.125L1243.41 349.306L1243.49 348.96L1243.58 349.306L1243.87 349.125L1243.69 349.422L1244.04 349.504L1243.69 349.587L1243.87 349.884L1243.58 349.702L1243.49 350.049L1243.41 349.702L1243.12 349.884L1243.3 349.587L1242.95 349.504L1243.3 349.422L1243.12 349.125Z" fill="#F7F5FE"/>
<path d="M1315.78 513.795L1313 514.504L1315.78 515.23L1314.32 517.705L1316.79 516.237L1317.49 519.025L1318.22 516.237L1320.69 517.705L1319.22 515.23L1322.01 514.504L1319.22 513.795L1320.69 511.32L1318.22 512.788L1317.49 510L1316.79 512.788L1314.32 511.32L1315.78 513.795ZM1317.12 514.125L1317.41 514.306L1317.49 513.96L1317.58 514.306L1317.87 514.125L1317.69 514.422L1318.04 514.504L1317.69 514.587L1317.87 514.884L1317.58 514.702L1317.49 515.049L1317.41 514.702L1317.12 514.884L1317.3 514.587L1316.95 514.504L1317.3 514.422L1317.12 514.125Z" fill="#F7F5FE"/>
<path d="M996.443 517.472L993.661 518.181L996.443 518.907L994.978 521.382L997.447 519.913L998.155 522.702L998.879 519.913L1001.35 521.382L999.884 518.907L1002.67 518.181L999.884 517.472L1001.35 514.997L998.879 516.465L998.155 513.677L997.447 516.465L994.978 514.997L996.443 517.472ZM997.776 517.802L998.073 517.983L998.155 517.637L998.237 517.983L998.534 517.802L998.353 518.099L998.698 518.181L998.353 518.264L998.534 518.561L998.237 518.379L998.155 518.726L998.073 518.379L997.776 518.561L997.957 518.264L997.612 518.181L997.957 518.099L997.776 517.802Z" fill="#F7F5FE"/>
<path d="M1037.78 422.795L1035 423.504L1037.78 424.23L1036.32 426.705L1038.79 425.237L1039.49 428.025L1040.22 425.237L1042.69 426.705L1041.22 424.23L1044.01 423.504L1041.22 422.795L1042.69 420.32L1040.22 421.788L1039.49 419L1038.79 421.788L1036.32 420.32L1037.78 422.795ZM1039.12 423.125L1039.41 423.306L1039.49 422.96L1039.58 423.306L1039.87 423.125L1039.69 423.422L1040.04 423.504L1039.69 423.587L1039.87 423.884L1039.58 423.702L1039.49 424.049L1039.41 423.702L1039.12 423.884L1039.3 423.587L1038.95 423.504L1039.3 423.422L1039.12 423.125Z" fill="#F7F5FE"/>
<path d="M832.911 553.769L830.129 554.479L832.911 555.205L831.446 557.68L833.916 556.211L834.624 559L835.348 556.211L837.817 557.68L836.352 555.205L839.134 554.479L836.352 553.769L837.817 551.295L835.348 552.763L834.624 549.975L833.916 552.763L831.446 551.295L832.911 553.769ZM834.245 554.099L834.541 554.281L834.624 553.934L834.706 554.281L835.002 554.099L834.821 554.396L835.167 554.479L834.821 554.561L835.002 554.858L834.706 554.677L834.624 555.023L834.541 554.677L834.245 554.858L834.426 554.561L834.08 554.479L834.426 554.396L834.245 554.099Z" fill="#F7F5FE"/>
<path d="M1045.42 100.101C1045.93 100.101 1046.34 99.6877 1046.34 99.1774C1046.34 98.6671 1045.93 98.2534 1045.42 98.2534C1044.91 98.2534 1044.5 98.6671 1044.5 99.1774C1044.5 99.6877 1044.91 100.101 1045.42 100.101Z" fill="#F7F5FE"/>
<path d="M858.841 353.09C859.35 353.09 859.763 352.676 859.763 352.166C859.763 351.655 859.35 351.242 858.841 351.242C858.332 351.242 857.919 351.655 857.919 352.166C857.919 352.676 858.332 353.09 858.841 353.09Z" fill="#F7F5FE"/>
<path d="M957.922 258.848C958.431 258.848 958.844 258.434 958.844 257.924C958.844 257.414 958.431 257 957.922 257C957.413 257 957 257.414 957 257.924C957 258.434 957.413 258.848 957.922 258.848Z" fill="#F7F5FE"/>
<path d="M877.147 429.729C877.656 429.729 878.069 429.315 878.069 428.805C878.069 428.295 877.656 427.881 877.147 427.881C876.638 427.881 876.225 428.295 876.225 428.805C876.225 429.315 876.638 429.729 877.147 429.729Z" fill="#F7F5FE"/>
<path d="M894.708 507.825C895.217 507.825 895.63 507.411 895.63 506.901C895.63 506.391 895.217 505.977 894.708 505.977C894.199 505.977 893.786 506.391 893.786 506.901C893.786 507.411 894.199 507.825 894.708 507.825Z" fill="#F7F5FE"/>
<path d="M1061.53 528.724C1062.04 528.724 1062.45 528.31 1062.45 527.8C1062.45 527.29 1062.04 526.876 1061.53 526.876C1061.02 526.876 1060.61 527.29 1060.61 527.8C1060.61 528.31 1061.02 528.724 1061.53 528.724Z" fill="#F7F5FE"/>
<path d="M1167.92 544.848C1168.43 544.848 1168.84 544.434 1168.84 543.924C1168.84 543.414 1168.43 543 1167.92 543C1167.41 543 1167 543.414 1167 543.924C1167 544.434 1167.41 544.848 1167.92 544.848Z" fill="#F7F5FE"/>
<path d="M217.885 326.691C218.394 326.691 218.807 326.277 218.807 325.767C218.807 325.256 218.394 324.843 217.885 324.843C217.376 324.843 216.963 325.256 216.963 325.767C216.963 326.277 217.376 326.691 217.885 326.691Z" fill="#F7F5FE"/>
<path d="M1228.22 116.784L1231 117.492L1228.22 118.216L1229.68 120.684L1227.22 119.219L1226.51 122L1225.78 119.219L1223.32 120.684L1224.78 118.216L1222 117.492L1224.78 116.784L1223.32 114.316L1225.78 115.781L1226.51 113L1227.22 115.781L1229.68 114.316L1228.22 116.784ZM1226.89 117.113L1226.59 117.294L1226.51 116.949L1226.43 117.294L1226.13 117.113L1226.31 117.41L1225.97 117.492L1226.31 117.574L1226.13 117.87L1226.43 117.689L1226.51 118.035L1226.59 117.689L1226.89 117.87L1226.71 117.574L1227.05 117.492L1226.71 117.41L1226.89 117.113Z" fill="#F7F5FE"/>
<path d="M1310.53 251.784L1313 252.492L1310.53 253.216L1311.83 255.684L1309.64 254.219L1309.01 257L1308.36 254.219L1306.17 255.684L1307.47 253.216L1305 252.492L1307.47 251.784L1306.17 249.316L1308.36 250.781L1309.01 248L1309.64 250.781L1311.83 249.316L1310.53 251.784ZM1309.34 252.113L1309.08 252.294L1309.01 251.949L1308.93 252.294L1308.67 252.113L1308.83 252.41L1308.52 252.492L1308.83 252.574L1308.67 252.87L1308.93 252.689L1309.01 253.035L1309.08 252.689L1309.34 252.87L1309.18 252.574L1309.49 252.492L1309.18 252.41L1309.34 252.113Z" fill="#F7F5FE"/>
<path d="M170.219 87.7843L173 88.4918L170.219 89.2157L171.684 91.6837L169.216 90.2194L168.508 93L167.784 90.2194L165.316 91.6837L166.781 89.2157L164 88.4918L166.781 87.7843L165.316 85.3163L167.784 86.7806L168.508 84L169.216 86.7806L171.684 85.3163L170.219 87.7843ZM168.887 88.1133L168.59 88.2943L168.508 87.9488L168.426 88.2943L168.13 88.1133L168.311 88.4095L167.965 88.4918L168.311 88.574L168.13 88.8702L168.426 88.6892L168.508 89.0347L168.59 88.6892L168.887 88.8702L168.706 88.574L169.051 88.4918L168.706 88.4095L168.887 88.1133Z" fill="#F7F5FE"/>
<path d="M745.219 108.364L748 108.993L745.219 109.636L746.684 111.83L744.216 110.528L743.508 113L742.784 110.528L740.316 111.83L741.781 109.636L739 108.993L741.781 108.364L740.316 106.17L742.784 107.472L743.508 105L744.216 107.472L746.684 106.17L745.219 108.364ZM743.887 108.656L743.59 108.817L743.508 108.51L743.426 108.817L743.13 108.656L743.311 108.92L742.965 108.993L743.311 109.066L743.13 109.329L743.426 109.168L743.508 109.475L743.59 109.168L743.887 109.329L743.706 109.066L744.051 108.993L743.706 108.92L743.887 108.656Z" fill="#F7F5FE"/>
<path d="M499.528 292.784L502 293.492L499.528 294.216L500.83 296.684L498.636 295.219L498.007 298L497.364 295.219L495.17 296.684L496.472 294.216L494 293.492L496.472 292.784L495.17 290.316L497.364 291.781L498.007 289L498.636 291.781L500.83 290.316L499.528 292.784ZM498.344 293.113L498.08 293.294L498.007 292.949L497.934 293.294L497.671 293.113L497.832 293.41L497.525 293.492L497.832 293.574L497.671 293.87L497.934 293.689L498.007 294.035L498.08 293.689L498.344 293.87L498.183 293.574L498.49 293.492L498.183 293.41L498.344 293.113Z" fill="#F7F5FE"/>
<path d="M534.528 159.784L537 160.492L534.528 161.216L535.83 163.684L533.636 162.219L533.007 165L532.364 162.219L530.17 163.684L531.472 161.216L529 160.492L531.472 159.784L530.17 157.316L532.364 158.781L533.007 156L533.636 158.781L535.83 157.316L534.528 159.784ZM533.344 160.113L533.08 160.294L533.007 159.949L532.934 160.294L532.671 160.113L532.832 160.41L532.525 160.492L532.832 160.574L532.671 160.87L532.934 160.689L533.007 161.035L533.08 160.689L533.344 160.87L533.183 160.574L533.49 160.492L533.183 160.41L533.344 160.113Z" fill="#F7F5FE"/>
<path d="M715.219 465.784L718 466.492L715.219 467.216L716.684 469.684L714.216 468.219L713.508 471L712.784 468.219L710.316 469.684L711.781 467.216L709 466.492L711.781 465.784L710.316 463.316L712.784 464.781L713.508 462L714.216 464.781L716.684 463.316L715.219 465.784ZM713.887 466.113L713.59 466.294L713.508 465.949L713.426 466.294L713.13 466.113L713.311 466.41L712.965 466.492L713.311 466.574L713.13 466.87L713.426 466.689L713.508 467.035L713.59 466.689L713.887 466.87L713.706 466.574L714.051 466.492L713.706 466.41L713.887 466.113Z" fill="#F7F5FE"/>
<path d="M1254.22 449.784L1257 450.492L1254.22 451.216L1255.68 453.684L1253.22 452.219L1252.51 455L1251.78 452.219L1249.32 453.684L1250.78 451.216L1248 450.492L1250.78 449.784L1249.32 447.316L1251.78 448.781L1252.51 446L1253.22 448.781L1255.68 447.316L1254.22 449.784ZM1252.89 450.113L1252.59 450.294L1252.51 449.949L1252.43 450.294L1252.13 450.113L1252.31 450.41L1251.97 450.492L1252.31 450.574L1252.13 450.87L1252.43 450.689L1252.51 451.035L1252.59 450.689L1252.89 450.87L1252.71 450.574L1253.05 450.492L1252.71 450.41L1252.89 450.113Z" fill="#F7F5FE"/>
<path d="M472.219 53.3638L475 53.9927L472.219 54.6362L473.684 56.83L471.216 55.5283L470.508 58L469.784 55.5283L467.316 56.83L468.781 54.6362L466 53.9927L468.781 53.3638L467.316 51.17L469.784 52.4717L470.508 50L471.216 52.4717L473.684 51.17L472.219 53.3638ZM470.887 53.6563L470.59 53.8172L470.508 53.5101L470.426 53.8172L470.13 53.6563L470.311 53.9196L469.965 53.9927L470.311 54.0658L470.13 54.3291L470.426 54.1682L470.508 54.4753L470.59 54.1682L470.887 54.3291L470.706 54.0658L471.051 53.9927L470.706 53.9196L470.887 53.6563Z" fill="#F7F5FE"/>
<path d="M55.2194 25.7843L58 26.4918L55.2194 27.2157L56.6837 29.6837L54.2157 28.2194L53.5082 31L52.7843 28.2194L50.3163 29.6837L51.7806 27.2157L49 26.4918L51.7806 25.7843L50.3163 23.3163L52.7843 24.7806L53.5082 22L54.2157 24.7806L56.6837 23.3163L55.2194 25.7843ZM53.8866 26.1133L53.5905 26.2943L53.5082 25.9488L53.426 26.2943L53.1298 26.1133L53.3108 26.4095L52.9653 26.4918L53.3108 26.574L53.1298 26.8702L53.426 26.6892L53.5082 27.0347L53.5905 26.6892L53.8866 26.8702L53.7057 26.574L54.0512 26.4918L53.7057 26.4095L53.8866 26.1133Z" fill="#F7F5FE"/>
<path d="M31.2194 295.364L34 295.993L31.2194 296.636L32.6837 298.83L30.2157 297.528L29.5082 300L28.7843 297.528L26.3163 298.83L27.7806 296.636L25 295.993L27.7806 295.364L26.3163 293.17L28.7843 294.472L29.5082 292L30.2157 294.472L32.6837 293.17L31.2194 295.364ZM29.8866 295.656L29.5905 295.817L29.5082 295.51L29.426 295.817L29.1298 295.656L29.3108 295.92L28.9653 295.993L29.3108 296.066L29.1298 296.329L29.426 296.168L29.5082 296.475L29.5905 296.168L29.8866 296.329L29.7057 296.066L30.0512 295.993L29.7057 295.92L29.8866 295.656Z" fill="#F7F5FE"/>
<path d="M165.528 509.784L168 510.492L165.528 511.216L166.83 513.684L164.636 512.219L164.007 515L163.364 512.219L161.17 513.684L162.472 511.216L160 510.492L162.472 509.784L161.17 507.316L163.364 508.781L164.007 506L164.636 508.781L166.83 507.316L165.528 509.784ZM164.344 510.113L164.08 510.294L164.007 509.949L163.934 510.294L163.671 510.113L163.832 510.41L163.525 510.492L163.832 510.574L163.671 510.87L163.934 510.689L164.007 511.035L164.08 510.689L164.344 510.87L164.183 510.574L164.49 510.492L164.183 510.41L164.344 510.113Z" fill="#F7F5FE"/>
<path d="M373.528 499.784L376 500.492L373.528 501.216L374.83 503.684L372.636 502.219L372.007 505L371.364 502.219L369.17 503.684L370.472 501.216L368 500.492L370.472 499.784L369.17 497.316L371.364 498.781L372.007 496L372.636 498.781L374.83 497.316L373.528 499.784ZM372.344 500.113L372.08 500.294L372.007 499.949L371.934 500.294L371.671 500.113L371.832 500.41L371.525 500.492L371.832 500.574L371.671 500.87L371.934 500.689L372.007 501.035L372.08 500.689L372.344 500.87L372.183 500.574L372.49 500.492L372.183 500.41L372.344 500.113Z" fill="#F7F5FE"/>
<path d="M532.219 534.784L535 535.492L532.219 536.216L533.684 538.684L531.216 537.219L530.508 540L529.784 537.219L527.316 538.684L528.781 536.216L526 535.492L528.781 534.784L527.316 532.316L529.784 533.781L530.508 531L531.216 533.781L533.684 532.316L532.219 534.784ZM530.887 535.113L530.59 535.294L530.508 534.949L530.426 535.294L530.13 535.113L530.311 535.41L529.965 535.492L530.311 535.574L530.13 535.87L530.426 535.689L530.508 536.035L530.59 535.689L530.887 535.87L530.706 535.574L531.051 535.492L530.706 535.41L530.887 535.113Z" fill="#F7F5FE"/>
<path d="M326 97C325.448 97 325 96.5523 325 96C325 95.4477 325.448 95 326 95C326.552 95 327 95.4477 327 96C327 96.5523 326.552 97 326 97Z" fill="#F7F5FE"/>
<path d="M385 414C384.448 414 384 413.776 384 413.5C384 413.224 384.448 413 385 413C385.552 413 386 413.224 386 413.5C386 413.776 385.552 414 385 414Z" fill="#F7F5FE"/>
<path d="M447 216C446.448 216 446 215.776 446 215.5C446 215.224 446.448 215 447 215C447.552 215 448 215.224 448 215.5C448 215.776 447.552 216 447 216Z" fill="#F7F5FE"/>
<path d="M489 415C488.448 415 488 414.776 488 414.5C488 414.224 488.448 414 489 414C489.552 414 490 414.224 490 414.5C490 414.776 489.552 415 489 415Z" fill="#F7F5FE"/>
<path d="M400 560C399.448 560 399 559.776 399 559.5C399 559.224 399.448 559 400 559C400.552 559 401 559.224 401 559.5C401 559.776 400.552 560 400 560Z" fill="#F7F5FE"/>
<path d="M472 491C471.448 491 471 490.552 471 490C471 489.448 471.448 489 472 489C472.552 489 473 489.448 473 490C473 490.552 472.552 491 472 491Z" fill="#F7F5FE"/>
<path d="M253 415C252.448 415 252 414.552 252 414C252 413.448 252.448 413 253 413C253.552 413 254 413.448 254 414C254 414.552 253.552 415 253 415Z" fill="#F7F5FE"/>
<path d="M311 511C310.448 511 310 510.552 310 510C310 509.448 310.448 509 311 509C311.552 509 312 509.448 312 510C312 510.552 311.552 511 311 511Z" fill="#F7F5FE"/>
<path d="M355 300C354.448 300 354 299.552 354 299C354 298.448 354.448 298 355 298C355.552 298 356 298.448 356 299C356 299.552 355.552 300 355 300Z" fill="#F7F5FE"/>
<path d="M216 215C215.448 215 215 214.552 215 214C215 213.448 215.448 213 216 213C216.552 213 217 213.448 217 214C217 214.552 216.552 215 216 215Z" fill="#F7F5FE"/>
<path d="M1126.5 316C1126.22 316 1126 315.552 1126 315C1126 314.448 1126.22 314 1126.5 314C1126.78 314 1127 314.448 1127 315C1127 315.552 1126.78 316 1126.5 316Z" fill="#F7F5FE"/>
<path d="M1141.5 209C1141.22 209 1141 208.552 1141 208C1141 207.448 1141.22 207 1141.5 207C1141.78 207 1142 207.448 1142 208C1142 208.552 1141.78 209 1141.5 209Z" fill="#F7F5FE"/>
<path d="M1039.5 332C1039.22 332 1039 331.552 1039 331C1039 330.448 1039.22 330 1039.5 330C1039.78 330 1040 330.448 1040 331C1040 331.552 1039.78 332 1039.5 332Z" fill="#F7F5FE"/>
<path d="M1169.5 430C1169.22 430 1169 429.552 1169 429C1169 428.448 1169.22 428 1169.5 428C1169.78 428 1170 428.448 1170 429C1170 429.552 1169.78 430 1169.5 430Z" fill="#F7F5FE"/>
<path d="M1152.5 59C1152.22 59 1152 58.5523 1152 58C1152 57.4477 1152.22 57 1152.5 57C1152.78 57 1153 57.4477 1153 58C1153 58.5523 1152.78 59 1152.5 59Z" fill="#F7F5FE"/>
</svg>
