<svg width="1360" height="248" viewBox="0 0 1360 248" fill="none" xmlns="http://www.w3.org/2000/svg">
<path d="M1364 38.5164V266H-4V23.017L80.075 0H228.986L380.75 39.7229L437.75 31.2108L439.103 31.2454L496.886 32.6295L545.336 49.6536L610.175 35.4668H670.025L725.102 49.6042L761.225 58.8737L848.864 60.2948L919.043 44.9781L952.886 37.5936L1034.82 49.6536L1103.94 33.3376L1152.39 49.6536H1222.93L1248.57 36.1749L1323.39 49.6536L1347.61 37.5936L1364 38.5164Z" fill="#1C1749"/>
<path d="M1364 243.773V277H-112.113L-126.718 221.794V80.8027L-105.024 69.0019H-105.016L-44.4176 36.0413L-30.8688 35.1065L100.771 26L211.022 54.5766L349.761 68.7547L368.503 77.6893L444.724 114.043L526.249 113.272L626.405 133.352L717.844 156.55L739.054 161.933L816.674 167.193H816.683L875.636 171.193L1013.84 204.401L1150.49 225.254L1191.84 225.749L1280.15 226.799L1364 243.773Z" fill="#261F62"/>
</svg>
