<svg width="43" height="49" viewBox="0 0 43 49" fill="none" xmlns="http://www.w3.org/2000/svg">
<path d="M8.73352 32.1055L7.1582 46.9997L19.2694 38.1884" stroke="#78F493" stroke-width="3" stroke-linecap="round" stroke-linejoin="round"/>
<path d="M10.3094 17.2148L2 19.4413L8.02829 21.1658" stroke="#78F493" stroke-width="3" stroke-linecap="round" stroke-linejoin="round"/>
<path d="M31.3807 29.3789L33.6072 37.6883L29.0996 33.3299" stroke="#78F493" stroke-width="3" stroke-linecap="round" stroke-linejoin="round"/>
<path d="M33.0088 2.22461C33.0088 2.22461 16.39 6.67759 7.26562 22.4814L11.7186 39.1002L28.3374 34.6472C37.4617 18.8434 33.0088 2.22461 33.0088 2.22461Z" stroke="#78F493" stroke-width="3" stroke-linecap="round" stroke-linejoin="round"/>
<path d="M21.5004 22.3294C23.8915 23.7099 26.949 22.8907 28.3294 20.4996C29.7099 18.1085 28.8907 15.051 26.4996 13.6706C24.1085 12.2901 21.0512 13.1093 19.6706 15.5004C18.2901 17.8915 19.1093 20.9488 21.5004 22.3294Z" fill="#78F493"/>
<path d="M14.7502 3.79882C15.4675 4.21296 16.3848 3.9672 16.7988 3.24987C17.2129 2.53255 16.9673 1.61532 16.2499 1.20118C15.5326 0.787037 14.6154 1.0328 14.2011 1.75012C13.787 2.46745 14.0329 3.38468 14.7502 3.79882Z" fill="#78F493"/>
<path d="M39.7501 18.7988C40.4675 19.213 41.3847 18.9672 41.7988 18.2499C42.2129 17.5325 41.9673 16.6153 41.2499 16.2012C40.5326 15.787 39.6153 16.0328 39.2012 16.7501C38.787 17.4675 39.0328 18.3847 39.7501 18.7988Z" fill="#78F493"/>
<path d="M15.0001 32.7318C15.9565 33.2839 17.1795 32.9562 17.7318 31.9998C18.2839 31.0433 17.9562 29.8203 16.9998 29.2682C16.0433 28.7161 14.8203 29.0437 14.2682 30.0001C13.7161 30.9565 14.0437 32.1795 15.0001 32.7318Z" fill="#78F493"/>
</svg>
