<svg width="243" height="101" viewBox="0 0 243 101" fill="none" xmlns="http://www.w3.org/2000/svg">
<path d="M168.096 65.7565C167.831 66.3797 168.134 67.0973 168.757 67.3616C169.38 67.626 170.098 67.3239 170.363 66.7007C170.627 66.0775 170.325 65.3599 169.702 65.0955C169.078 64.8312 168.36 65.1333 168.096 65.7565Z" fill="white"/>
<path d="M150.096 74.7565C149.831 75.3797 150.134 76.0973 150.757 76.3616C151.38 76.626 152.098 76.3239 152.363 75.7007C152.627 75.0775 152.325 74.3599 151.702 74.0955C151.078 73.8312 150.36 74.1333 150.096 74.7565Z" fill="white"/>
<path d="M131.096 82.7565C130.831 83.3797 131.133 84.0973 131.757 84.3616C132.38 84.626 133.098 84.3239 133.363 83.7007C133.627 83.0775 133.325 82.3599 132.702 82.0955C132.078 81.8312 131.36 82.1333 131.096 82.7565Z" fill="white"/>
<path d="M88.0958 95.7565C87.8313 96.3797 88.1336 97.0973 88.757 97.3616C89.3805 97.626 90.0984 97.3239 90.3628 96.7007C90.6273 96.0775 90.3251 95.3599 89.7016 95.0955C89.0782 94.8312 88.3603 95.1333 88.0958 95.7565Z" fill="white"/>
<path d="M64.0958 98.7565C63.8313 99.3797 64.1336 100.097 64.757 100.362C65.3805 100.626 66.0984 100.324 66.3628 99.7007C66.6273 99.0775 66.3251 98.3599 65.7016 98.0955C65.0782 97.8312 64.3603 98.1333 64.0958 98.7565Z" fill="white"/>
<path d="M39.0958 97.7565C38.8313 98.3797 39.1336 99.0973 39.757 99.3616C40.3805 99.626 41.0984 99.3239 41.3628 98.7007C41.6273 98.0775 41.3251 97.3599 40.7016 97.0955C40.0782 96.8312 39.3603 97.1333 39.0958 97.7565Z" fill="white"/>
<path d="M16.0958 93.7565C15.8313 94.3797 16.1336 95.0973 16.757 95.3616C17.3805 95.626 18.0984 95.3239 18.3628 94.7007C18.6273 94.0775 18.3251 93.3599 17.7016 93.0955C17.0782 92.8312 16.3603 93.1333 16.0958 93.7565Z" fill="white"/>
<path d="M0.0957757 84.7565C-0.168716 85.3797 0.133572 86.0973 0.757017 86.3616C1.38046 86.626 2.09835 86.3239 2.36284 85.7007C2.62733 85.0775 2.32508 84.3599 1.70163 84.0955C1.07819 83.8312 0.360268 84.1333 0.0957757 84.7565Z" fill="white"/>
<path d="M110.096 89.7565C109.831 90.3797 110.133 91.0973 110.757 91.3616C111.38 91.626 112.098 91.3239 112.363 90.7007C112.627 90.0775 112.325 89.3599 111.702 89.0955C111.078 88.8312 110.36 89.1333 110.096 89.7565Z" fill="white"/>
<path d="M210.279 34.6216C209.849 34.1146 209.447 33.5851 209.07 33.0583L180.197 59.9634L211.935 36.3103C211.353 35.7867 210.802 35.2154 210.279 34.6216Z" fill="#ECEBF6"/>
<path d="M232.884 39.3894C230.914 40.35 228.834 40.9152 226.713 41.1438L207.636 81.0796L232.887 39.3641L232.884 39.3894Z" fill="#ECEBF6"/>
<path d="M209.085 11.6163L163.999 29.9786L206.409 17.4071C206.966 15.3466 207.871 13.3751 209.088 11.5911L209.085 11.6163Z" fill="#ECEBF6"/>
<path d="M235.029 34.4863C228.322 40.2204 218.238 39.4264 212.506 32.7177C206.773 26.009 207.568 15.9234 214.275 10.1893C220.983 4.45516 231.066 5.24914 236.799 11.9578C242.531 18.6665 241.737 28.7521 235.029 34.4863Z" fill="#3F34A3"/>
</svg>
