<svg width="252" height="122" viewBox="0 0 252 122" fill="none" xmlns="http://www.w3.org/2000/svg">
<path d="M32.3223 59.64L32.3761 59.6042C31.1743 59.138 29.9904 58.6001 28.8245 58.0443C29.524 62.3654 31.4433 66.6326 34.6183 70.2544C36.986 72.9618 39.8022 75.0416 42.8336 76.4401C39.9457 71.9577 38.8515 66.776 39.4973 61.935C37.0578 61.3434 34.6721 60.5724 32.3223 59.64Z" fill="white"/>
<path d="M56.2687 38.7161L56.3225 38.6803C56.8965 41.0112 57.327 43.3599 57.5961 45.7087C62.6365 45.6011 67.8204 47.3762 71.9999 50.9442C71.0133 47.7527 69.3451 44.6867 66.9774 41.9794C63.6589 38.1783 59.4436 35.6502 55.031 34.4489C55.4974 35.8654 55.9279 37.2818 56.2866 38.7161H56.2687Z" fill="white"/>
<path d="M43.3539 17.2007C38.1699 11.2839 31.9277 6.85533 25.1473 3.9328L2.06177 24.1216C4.03489 31.2217 7.60445 37.9991 12.7704 43.9159C18.2952 50.2271 25.0397 54.8529 32.3223 57.7396L32.2685 57.7755C36.0892 59.2995 40.0713 60.3394 44.1252 60.8952L55.9818 50.5319C55.9639 46.444 55.4617 42.3739 54.4751 38.3756L54.4213 38.4115C52.5379 30.7914 48.8607 23.512 43.3359 17.1828L43.3539 17.2007ZM31.838 34.8793C27.7841 38.4294 21.6136 38.017 18.062 33.947C14.5104 29.8949 14.9229 23.7271 18.9948 20.177C23.0486 16.627 29.2191 17.0394 32.7707 21.1094C36.3224 25.1615 35.9098 31.3293 31.838 34.8793Z" fill="#3F34A3"/>
<path d="M23.1203 3.5383C16.609 0.938508 9.61339 -0.244842 2.67159 0.0420318C1.7209 0.0778911 0.913711 0.777151 0.752274 1.72742C-0.449537 8.57654 -0.21635 15.6587 1.48771 22.4541L23.1203 3.5383Z" fill="white"/>
<path d="M63.7308 55.4446C60.6634 54.0102 57.5782 53.7233 55.0131 53.8847C55.336 54.0819 55.6768 54.2971 55.9997 54.566C60.3764 57.8651 63.372 64.3198 62.1343 69.3221C56.9863 69.7524 51.049 66.0051 48.3404 61.2538C48.1251 60.8593 47.9278 60.4828 47.7664 60.1063C47.4973 62.0068 47.4794 64.2839 48.1251 66.7403C48.3942 67.7981 49.6319 72.5495 53.4885 75.2927C54.7261 76.1712 56.3046 76.9063 56.6454 77.0498C58.5827 77.9283 60.3226 78.3587 61.5603 78.5917C61.3271 78.4662 60.6634 78.0538 60.2868 77.1932C59.8921 76.3505 59.9998 75.5796 60.0536 75.3106C60.789 76.0278 62.5648 77.5339 65.2913 78.1076C67.2644 78.52 68.9147 78.2869 69.8654 78.0718C70.1703 77.1215 70.547 75.7409 70.7264 74.0555C70.9416 72.2088 71.1748 70.111 70.3856 67.7085C69.5784 65.2521 68.0537 63.6026 66.9236 62.6164C67.4797 62.7419 68.2689 62.993 69.0941 63.5309C70.4035 64.3736 71.121 65.4672 71.4439 66.0589C71.4618 65.019 71.3542 63.4771 70.6546 61.7917C69.0403 57.901 65.4707 56.2335 63.7308 55.4087V55.4446Z" fill="#ECEBF6"/>
<path d="M83.363 86.7569C83.6275 87.38 83.3252 88.0976 82.7018 88.362C82.0783 88.6264 81.3605 88.3242 81.096 87.7011C80.8315 87.0779 81.1337 86.3603 81.7572 86.0959C82.3806 85.8315 83.0985 86.1337 83.363 86.7569Z" fill="white"/>
<path d="M101.363 95.7569C101.628 96.38 101.325 97.0976 100.702 97.362C100.078 97.6264 99.3605 97.3242 99.096 96.7011C98.8315 96.0779 99.1337 95.3603 99.7572 95.0959C100.381 94.8315 101.099 95.1337 101.363 95.7569Z" fill="white"/>
<path d="M120.363 103.757C120.628 104.38 120.325 105.098 119.702 105.362C119.078 105.626 118.36 105.324 118.096 104.701C117.831 104.078 118.134 103.36 118.757 103.096C119.381 102.832 120.099 103.134 120.363 103.757Z" fill="white"/>
<path d="M163.363 116.757C163.628 117.38 163.325 118.098 162.702 118.362C162.078 118.626 161.36 118.324 161.096 117.701C160.831 117.078 161.134 116.36 161.757 116.096C162.381 115.832 163.099 116.134 163.363 116.757Z" fill="white"/>
<path d="M187.363 119.757C187.628 120.38 187.325 121.098 186.702 121.362C186.078 121.626 185.36 121.324 185.096 120.701C184.831 120.078 185.134 119.36 185.757 119.096C186.381 118.832 187.099 119.134 187.363 119.757Z" fill="white"/>
<path d="M212.363 118.757C212.628 119.38 212.325 120.098 211.702 120.362C211.078 120.626 210.36 120.324 210.096 119.701C209.831 119.078 210.134 118.36 210.757 118.096C211.381 117.832 212.099 118.134 212.363 118.757Z" fill="white"/>
<path d="M235.363 114.757C235.628 115.38 235.325 116.098 234.702 116.362C234.078 116.626 233.36 116.324 233.096 115.701C232.831 115.078 233.134 114.36 233.757 114.096C234.381 113.832 235.099 114.134 235.363 114.757Z" fill="white"/>
<path d="M251.363 105.757C251.628 106.38 251.325 107.098 250.702 107.362C250.078 107.626 249.36 107.324 249.096 106.701C248.831 106.078 249.134 105.36 249.757 105.096C250.381 104.832 251.099 105.134 251.363 105.757Z" fill="white"/>
<path d="M141.363 110.757C141.628 111.38 141.325 112.098 140.702 112.362C140.078 112.626 139.36 112.324 139.096 111.701C138.831 111.078 139.134 110.36 139.757 110.096C140.381 109.832 141.099 110.134 141.363 110.757Z" fill="white"/>
</svg>
