<svg width="270" height="248" viewBox="0 0 270 248" fill="none" xmlns="http://www.w3.org/2000/svg">
<path d="M109.075 124.975C109.386 124.594 110.076 124.662 110.652 125.131C111.227 125.6 111.433 126.262 111.122 126.644C110.81 127.025 110.121 126.957 109.545 126.488C108.97 126.019 108.764 125.357 109.075 124.975Z" fill="#ECEBF6"/>
<path d="M120.344 141.645C119.779 141.184 119.073 141.114 118.768 141.489C118.462 141.864 118.673 142.541 119.238 143.002C119.803 143.462 120.509 143.532 120.814 143.157C121.12 142.783 120.909 142.105 120.344 141.645Z" fill="#ECEBF6"/>
<path d="M130.585 157.158C130.896 156.777 131.586 156.845 132.162 157.314C132.737 157.783 132.943 158.445 132.632 158.827C132.321 159.208 131.631 159.14 131.055 158.671C130.48 158.202 130.274 157.54 130.585 157.158Z" fill="#ECEBF6"/>
<path d="M144.938 171.612C145.249 171.23 145.939 171.298 146.515 171.767C147.09 172.237 147.296 172.898 146.985 173.28C146.674 173.662 145.984 173.594 145.408 173.125C144.833 172.655 144.627 171.994 144.938 171.612Z" fill="#ECEBF6"/>
<path d="M161.207 183.78C161.519 183.398 162.208 183.466 162.784 183.935C163.36 184.405 163.565 185.066 163.254 185.448C162.943 185.83 162.253 185.762 161.678 185.293C161.102 184.823 160.896 184.161 161.207 183.78Z" fill="#ECEBF6"/>
<path d="M178.991 191.218C179.302 190.836 179.992 190.904 180.567 191.373C181.143 191.842 181.349 192.504 181.037 192.886C180.726 193.268 180.037 193.2 179.461 192.73C178.885 192.261 178.68 191.599 178.991 191.218Z" fill="#ECEBF6"/>
<path d="M198.105 194.41C197.54 193.949 196.834 193.88 196.529 194.254C196.223 194.629 196.434 195.306 196.999 195.767C197.564 196.228 198.27 196.298 198.575 195.923C198.881 195.548 198.67 194.871 198.105 194.41Z" fill="#ECEBF6"/>
<path d="M212.889 193.578C213.2 193.196 213.89 193.265 214.465 193.734C215.041 194.203 215.247 194.865 214.935 195.246C214.624 195.628 213.935 195.56 213.359 195.091C212.783 194.622 212.578 193.96 212.889 193.578Z" fill="#ECEBF6"/>
<path d="M228.438 189.064C227.873 188.604 227.167 188.534 226.862 188.909C226.556 189.283 226.767 189.961 227.332 190.421C227.897 190.882 228.603 190.952 228.908 190.577C229.214 190.202 229.003 189.525 228.438 189.064Z" fill="#ECEBF6"/>
<path d="M240.278 183.291C240.589 182.909 241.279 182.977 241.854 183.447C242.43 183.916 242.636 184.578 242.325 184.959C242.013 185.341 241.324 185.273 240.748 184.804C240.172 184.335 239.967 183.673 240.278 183.291Z" fill="#ECEBF6"/>
<path d="M251.857 175.682C252.168 175.3 252.858 175.369 253.433 175.838C254.009 176.307 254.214 176.969 253.903 177.35C253.592 177.732 252.902 177.664 252.327 177.195C251.751 176.726 251.546 176.064 251.857 175.682Z" fill="#ECEBF6"/>
<path d="M263.074 167.601C263.385 167.22 264.075 167.288 264.651 167.757C265.226 168.226 265.432 168.888 265.121 169.27C264.81 169.651 264.12 169.583 263.544 169.114C262.969 168.645 262.763 167.983 263.074 167.601Z" fill="#ECEBF6"/>
<g clip-path="url(#clip0_1154_595)">
<path d="M113.541 54.4854L90.9061 57.3804L49.8831 88.7042L41 109.882L113.541 54.4854Z" fill="#ECEBF6"/>
<path d="M41.6733 111.552L64.7229 108.344L105.668 77.0719L114.966 55.6069L41.6733 111.552Z" fill="#ECEBF6"/>
<path d="M100.411 83.7749L98.2612 85.418L121 97.911L100.411 83.7749Z" fill="#ECEBF6"/>
<path d="M72.4406 105.136L80.6503 129L74.5901 103.492L72.4406 105.136Z" fill="#ECEBF6"/>
<path d="M85.2344 95.3551L103.959 117.916L87.7724 93.425L85.2344 95.3551Z" fill="#ECEBF6"/>
<path d="M54.5708 52.0337C43.7971 60.2754 41.6216 75.7417 49.7019 86.6437L88.9897 56.6501C80.7281 45.8785 65.3704 43.792 54.5708 52.0337ZM54.8557 79.4713L50.5565 82.7576C45.7912 74.5941 46.4905 64.4224 51.9551 57.0152C49.935 64.3963 50.8155 72.5076 54.8816 79.4713L54.8557 79.4713Z" fill="#3F34A3"/>
</g>
<defs>
<clipPath id="clip0_1154_595">
<rect width="80" height="82" fill="white" transform="translate(41 47)"/>
</clipPath>
</defs>
</svg>
