<svg width="1358" height="612" viewBox="0 0 1358 612" fill="none" xmlns="http://www.w3.org/2000/svg">
<g filter="url(#filter0_d_752_2155)">
<path d="M1321.71 283.779C1333.62 275.733 1346.08 268.561 1358.89 261.74V219.935C1338.67 238.213 1319.69 257.192 1299.36 275.471C1279.04 293.749 1256.24 312.203 1226.93 323.835C1198.06 335.204 1165.16 338.091 1133.15 331.444C1094.96 323.573 1067 306.168 1039.37 287.015C1010.62 267.075 981.307 248.446 939.641 243.986C891.011 238.738 846.088 254.218 805.769 271.36C743.101 298.122 677.401 328.82 600.02 325.059C542.968 322.261 495.124 299.959 457.389 271.36C413.701 238.213 380.794 198.857 348.45 160.288C331.716 140.348 315.206 120.32 297.462 100.817C280.166 81.751 262.197 61.9855 238.387 46.418C176.73 6.01235 84.0758 -8.76806 4 5.05031V23.6789C5.57232 23.6789 7.03232 23.5914 8.60464 23.504C45.7787 22.8918 83.1774 28.5765 118.667 38.1969C159.884 49.3915 200.54 66.5333 231.537 93.2955C259.501 117.346 282.862 151.193 273.989 186.788C265.903 219.148 234.569 243.024 197.956 249.583C176.393 253.431 154.83 252.032 134.502 244.598C113.164 236.814 94.2959 224.92 75.0912 213.9C65.6573 208.478 55.9988 202.793 45.7787 198.682C34.0986 193.96 21.9693 189.849 9.61542 186.788C7.81848 186.351 5.90924 185.914 4.11231 185.476V600.902C6.80771 601.427 9.50311 601.864 12.3108 602.301C52.7418 608.161 92.2743 598.366 123.608 580.524C151.798 564.519 174.035 543.442 197.732 524.464C219.857 506.71 243.554 489.568 272.08 476.624C309.254 459.832 353.167 448.812 396.181 441.379C440.542 433.682 486.252 429.484 531.961 429.134C572.617 428.872 612.487 431.758 651.794 439.105C688.969 446.014 724.682 455.722 760.284 465.692C831.263 485.632 904.151 506.01 982.206 503.474C1061.5 500.937 1132.47 476.712 1198.29 447.675C1250.06 424.849 1300.82 397.737 1359 383.044V354.095C1355.86 354.533 1352.71 354.97 1349.57 355.407C1336.31 357.069 1322.39 358.206 1309.14 356.019C1299.7 354.445 1289.71 350.859 1285.21 342.901C1271.96 319.637 1303.52 296.198 1321.83 283.867L1321.71 283.779ZM208.177 419.689C204.133 442.865 183.244 461.057 160.67 471.989C137.535 483.096 108.447 489.48 82.5035 483.096C58.9188 477.324 40.1633 458.695 38.591 437.355C34.0986 426.336 35.2217 414.267 42.5218 403.072C53.9772 385.318 74.7542 372.549 95.8682 364.94C119.79 356.282 149.215 352.521 173.361 362.841C197.058 372.899 212.22 396.775 208.177 419.776V419.689ZM401.235 350.422C389.555 356.282 371.473 357.069 360.017 350.072C351.594 344.912 347.888 336.166 348.899 327.333C349.123 325.759 349.348 324.185 349.797 322.61C347.888 314.564 350.022 306.431 358.333 300.833C368.328 294.099 382.928 292.525 394.721 296.198C407.524 300.221 418.081 309.929 418.642 322.173C419.092 333.368 412.353 344.65 401.122 350.335L401.235 350.422ZM978.499 418.202C950.085 442.778 909.093 458.083 872.93 455.809C839.911 453.71 802.4 442.69 781.174 419.252C771.178 408.232 765.563 394.588 766.911 380.42C768.371 365.377 775.671 351.122 786.452 339.402C809.363 314.739 844.852 299.784 879.893 293.225C921.784 285.353 1004.22 290.601 1013.09 338.528C1018.59 368.439 1003.32 396.775 978.499 418.115V418.202ZM1075.31 455.284C1063.63 466.129 1046.56 473.563 1029.26 473.476C1014.55 473.476 996.356 467.266 992.538 453.36C989.73 443.303 994.672 432.633 1003.09 424.324C1004.44 422.05 1006.01 419.864 1007.81 418.115C1018.59 407.445 1037.8 403.422 1053.52 403.772C1066.32 404.034 1082.5 407.795 1086.88 419.864C1091.37 432.283 1085.08 446.276 1075.31 455.372V455.284Z" fill="#1C1749"/>
</g>
<defs>
<filter id="filter0_d_752_2155" x="0" y="0" width="1363" height="612" filterUnits="userSpaceOnUse" color-interpolation-filters="sRGB">
<feFlood flood-opacity="0" result="BackgroundImageFix"/>
<feColorMatrix in="SourceAlpha" type="matrix" values="0 0 0 0 0 0 0 0 0 0 0 0 0 0 0 0 0 0 127 0" result="hardAlpha"/>
<feOffset dy="4"/>
<feGaussianBlur stdDeviation="2"/>
<feComposite in2="hardAlpha" operator="out"/>
<feColorMatrix type="matrix" values="0 0 0 0 0 0 0 0 0 0 0 0 0 0 0 0 0 0 0.25 0"/>
<feBlend mode="normal" in2="BackgroundImageFix" result="effect1_dropShadow_752_2155"/>
<feBlend mode="normal" in="SourceGraphic" in2="effect1_dropShadow_752_2155" result="shape"/>
</filter>
</defs>
</svg>
