<svg width="48" height="48" viewBox="0 0 48 48" fill="none" xmlns="http://www.w3.org/2000/svg">
<path d="M21.3597 35.8581L29.5005 43.9989L33.0803 40.4181C33.2888 40.2107 33.4489 39.9598 33.5491 39.6833C33.6493 39.4068 33.6872 39.1116 33.6602 38.8188L32.3603 24.5993M16.7392 11.4194L14.0003 14.2591M33.7398 33.9986L36.5805 31.1791M23.5005 15.6386L9.1802 14.3388C8.8872 14.3115 8.5918 14.3494 8.3151 14.4496C8.0385 14.5499 7.78738 14.71 7.57984 14.9186L4 18.4994L12.1792 26.6786" stroke="#FAD9FB" stroke-width="2" stroke-linecap="round" stroke-linejoin="round"/>
<path d="M16.7392 36.919C16.925 37.1071 17.1462 37.2564 17.3901 37.3584C17.634 37.4603 17.8957 37.5128 18.16 37.5128C18.4244 37.5128 18.6861 37.4603 18.93 37.3584C19.1739 37.2564 19.3951 37.1071 19.5808 36.919L35.3997 21.0982C38.3417 18.1534 39.996 14.1622 40 9.99968C40 9.46933 39.7893 8.9607 39.4143 8.58569C39.0393 8.21068 38.5307 8 38.0003 8C33.8371 8.00351 29.8451 9.65787 26.8999 12.6003L11.08 28.4182C10.8922 28.6039 10.7431 28.825 10.6414 29.0687C10.5396 29.3125 10.4872 29.574 10.4872 29.8381C10.4872 30.1022 10.5396 30.3636 10.6414 30.6074C10.7431 30.8511 10.8922 31.0722 11.08 31.2579L16.7392 36.919Z" stroke="url(#paint0_linear_1036_1274)" stroke-width="2" stroke-linecap="round" stroke-linejoin="round"/>
<defs>
<linearGradient id="paint0_linear_1036_1274" x1="25.2436" y1="8" x2="25.2436" y2="37.5128" gradientUnits="userSpaceOnUse">
<stop stop-color="#FAD9FB"/>
<stop offset="1" stop-color="#3F34A3"/>
</linearGradient>
</defs>
</svg>
