<svg width="48" height="48" viewBox="0 0 48 48" fill="none" xmlns="http://www.w3.org/2000/svg">
<path d="M40.0003 40.0003L29.9001 29.9001" stroke="#2F277A" stroke-width="2" stroke-linecap="round" stroke-linejoin="round"/>
<path d="M40.9997 40.9996L34.0003 34.0002" stroke="#3F34A3" stroke-width="3" stroke-linecap="round" stroke-linejoin="round"/>
<path d="M19.9997 34.0003C27.7325 34.0003 34.0003 27.7315 34.0003 19.9997C34.0003 12.2678 27.7315 6 19.9997 6C12.2678 6 6 12.2688 6 19.9997C6 27.7325 12.2688 34.0003 19.9997 34.0003Z" stroke="url(#paint0_linear_1034_883)" stroke-width="2" stroke-linecap="round" stroke-linejoin="round"/>
<mask id="mask0_1034_883" style="mask-type:alpha" maskUnits="userSpaceOnUse" x="1" y="0" width="39" height="38">
<rect x="1.92" width="37.44" height="37.44" fill="#D9D9D9"/>
</mask>
<g mask="url(#mask0_1034_883)">
<path d="M11.6736 24.4041L14.9808 9.54937C15.0432 9.26642 15.1836 9.0441 15.402 8.88242C15.6204 8.72073 15.8752 8.63989 16.1664 8.63989H16.6968C16.988 8.63989 17.2428 8.72579 17.4612 8.89758C17.6796 9.06937 17.82 9.29673 17.8824 9.57968L21.4704 25.9805L23.6856 16.8252C23.748 16.5624 23.8884 16.3452 24.1068 16.1734C24.3252 16.0016 24.58 15.9157 24.8712 15.9157H25.464C25.7552 15.9157 26.0048 15.9965 26.2128 16.1582C26.4208 16.3199 26.556 16.5321 26.6184 16.7948L28.6464 24.4041H31.392C31.7456 24.4041 32.042 24.5203 32.2812 24.7527C32.5204 24.9852 32.64 25.2732 32.64 25.6167C32.64 25.9603 32.5204 26.2483 32.2812 26.4807C32.042 26.7132 31.7456 26.8294 31.392 26.8294H27.6792C27.388 26.8294 27.1332 26.7485 26.9148 26.5868C26.6964 26.4252 26.5456 26.2028 26.4624 25.9199L25.2144 21.13L22.8744 30.7704C22.812 31.0534 22.6716 31.2757 22.4532 31.4374C22.2348 31.5991 21.98 31.6799 21.6888 31.6799H21.1584C20.8672 31.6799 20.6072 31.594 20.3784 31.4222C20.1496 31.2504 20.004 31.0231 19.9416 30.7401L16.416 14.6424L13.8888 25.8896C13.8264 26.1725 13.6808 26.3999 13.452 26.5717C13.2232 26.7435 12.9632 26.8294 12.672 26.8294H8.92799C8.57439 26.8294 8.27799 26.7132 8.03879 26.4807C7.79959 26.2483 7.67999 25.9603 7.67999 25.6167C7.67999 25.2732 7.79959 24.9852 8.03879 24.7527C8.27799 24.5203 8.57439 24.4041 8.92799 24.4041H11.6736Z" fill="url(#paint1_linear_1034_883)"/>
</g>
<defs>
<linearGradient id="paint0_linear_1034_883" x1="20.0002" y1="6" x2="20.0002" y2="34.0003" gradientUnits="userSpaceOnUse">
<stop stop-color="#78F493"/>
<stop offset="1" stop-color="#3F34A3"/>
</linearGradient>
<linearGradient id="paint1_linear_1034_883" x1="20.16" y1="8.63989" x2="20.16" y2="31.6799" gradientUnits="userSpaceOnUse">
<stop stop-color="#3F34A3"/>
<stop offset="1" stop-color="#78F493"/>
</linearGradient>
</defs>
</svg>
